<svg width="16" height="16" viewBox="0 0 16 16" fill="none" xmlns="http://www.w3.org/2000/svg">
<path d="M10.8468 3.64337C9.71135 4.77775 8 5 8 5C8 5 8.20359 3.46263 9.33877 2.3272C10.474 1.19178 12 1 12 1C12 1 11.9809 2.50926 10.8468 3.64337Z" fill="#6A8323"/>
<path d="M5.15278 3.64337C6.28841 4.7788 8 5 8 5C8 5 7.79639 3.46263 6.6616 2.3272C5.52682 1.19178 4 1 4 1C4 1 4.018 2.50926 5.15278 3.64337Z" fill="#6A8323"/>
<path d="M8 5C5.79 5 4 7.2386 4 10C4 12.7614 5.79125 15 8 15C10.2087 15 12 12.7614 12 10C12 7.2386 10.21 5 8 5ZM8 12.763C6.79156 12.763 5.8125 11.539 5.8125 10.0291C5.8125 8.51918 6.79187 7.29554 8 7.29554C9.20812 7.29554 10.1875 8.51949 10.1875 10.0291C10.1875 11.5387 9.20844 12.763 8 12.763Z" fill="#6A8323"/>
</svg>
