<svg width="204" height="106" viewBox="0 0 204 106" fill="none" xmlns="http://www.w3.org/2000/svg">
<path d="M34.7038 83.0001C29.3359 83.0001 24.318 83.039 19.6502 83.1168C14.9824 83.2724 10.1591 83.5057 5.18007 83.8169C4.4799 82.65 3.85753 81.3663 3.31296 79.966C2.76838 78.5657 2.49609 77.1264 2.49609 75.6483L42.0556 23.9525C43.6115 23.8747 45.1675 23.9525 46.7234 24.1859C48.2793 24.3415 49.6797 24.6138 50.9244 25.0028V100.388C49.4463 100.388 47.8515 100.504 46.1399 100.738C44.4284 101.049 42.8725 101.399 41.4721 101.788C40.0718 102.177 38.9438 102.566 38.088 102.955C37.4656 102.41 36.9988 101.71 36.6877 100.854C36.4543 100.076 36.3376 99.1039 36.3376 97.937V37.8392H39.0216L14.399 73.5478L13.8155 70.7471L46.2566 70.6304H59.6765C60.7657 70.6304 61.6603 70.786 62.3605 71.0972C63.0607 71.4084 63.683 71.9141 64.2276 72.6142C63.683 73.7034 63.2163 74.8314 62.8273 75.9984C62.5161 77.1653 62.2827 78.3323 62.1271 79.4992C61.9715 80.5884 61.8937 81.7553 61.8937 83.0001H34.7038Z" fill="#6A8323"/>
<path d="M171.569 83.0001C166.202 83.0001 161.184 83.039 156.516 83.1168C151.848 83.2724 147.025 83.5057 142.046 83.8169C141.346 82.65 140.723 81.3663 140.179 79.966C139.634 78.5657 139.362 77.1264 139.362 75.6483L178.921 23.9525C180.477 23.8747 182.033 23.9525 183.589 24.1859C185.145 24.3415 186.545 24.6138 187.79 25.0028V100.388C186.312 100.388 184.717 100.504 183.006 100.738C181.294 101.049 179.738 101.399 178.338 101.788C176.937 102.177 175.809 102.566 174.954 102.955C174.331 102.41 173.864 101.71 173.553 100.854C173.32 100.076 173.203 99.1039 173.203 97.937V37.8392H175.887L151.265 73.5478L150.681 70.7471L183.122 70.6304H196.542C197.631 70.6304 198.526 70.786 199.226 71.0972C199.926 71.4084 200.549 71.9141 201.093 72.6142C200.549 73.7034 200.082 74.8314 199.693 75.9984C199.382 77.1653 199.148 78.3323 198.993 79.4992C198.837 80.5884 198.759 81.7553 198.759 83.0001H171.569Z" fill="#6A8323"/>
<path d="M124.355 24.494C115.673 33.718 102.586 35.5252 102.586 35.5252C102.586 35.5252 104.143 23.0244 112.823 13.7919C121.504 4.55939 133.174 3 133.174 3C133.174 3 133.027 15.2722 124.355 24.494Z" fill="#6A8323"/>
<path d="M80.814 24.494C89.4968 33.7265 102.583 35.5252 102.583 35.5252C102.583 35.5252 101.027 23.0244 92.3502 13.7919C83.6739 4.55939 72 3 72 3C72 3 72.1376 15.2722 80.814 24.494Z" fill="#6A8323"/>
<path d="M102.578 35.1396C87.3715 35.1396 75.0547 50.4239 75.0547 69.2776C75.0547 88.1314 87.3801 103.416 102.578 103.416C117.776 103.416 130.102 88.1314 130.102 69.2776C130.102 50.4239 117.785 35.1396 102.578 35.1396ZM102.578 88.1421C94.2631 88.1421 87.5263 79.7854 87.5263 69.4763C87.5263 59.1672 94.2653 50.8127 102.578 50.8127C110.891 50.8127 117.63 59.1693 117.63 69.4763C117.63 79.7833 110.893 88.1421 102.578 88.1421Z" fill="#6A8323"/>
<path d="M105.432 60.1338C105.432 60.8839 105.132 61.6033 104.598 62.1337C104.064 62.6641 103.34 62.9621 102.585 62.9621C101.83 62.9621 101.106 62.6641 100.572 62.1337C100.038 61.6033 99.7383 60.8839 99.7383 60.1338C99.7383 58.5701 102.585 55.1758 102.585 55.1758C102.585 55.1758 105.432 58.5701 105.432 60.1338Z" fill="#6A8323"/>
</svg>
