<svg width="25" height="24" viewBox="0 0 25 24" fill="none" xmlns="http://www.w3.org/2000/svg">
<g clip-path="url(#clip0_400_17419)">
<path d="M18.0518 17.94C16.3424 19.243 14.2609 19.9649 12.1118 20C5.11182 20 1.11182 12 1.11182 12C2.35571 9.68192 4.08095 7.65663 6.17182 6.06003M10.0118 4.24002C10.7001 4.0789 11.4049 3.99836 12.1118 4.00003C19.1118 4.00003 23.1118 12 23.1118 12C22.5048 13.1356 21.7809 14.2048 20.9518 15.19M14.2318 14.12C13.9572 14.4148 13.626 14.6512 13.258 14.8151C12.89 14.9791 12.4927 15.0673 12.0899 15.0744C11.6871 15.0815 11.287 15.0074 10.9134 14.8565C10.5399 14.7056 10.2005 14.4811 9.91566 14.1962C9.63079 13.9113 9.40621 13.572 9.25533 13.1984C9.10444 12.8249 9.03034 12.4247 9.03745 12.0219C9.04456 11.6191 9.13273 11.2219 9.29669 10.8539C9.46066 10.4859 9.69707 10.1547 9.99182 9.88003" stroke="#A49B82" stroke-width="2" stroke-linecap="round" stroke-linejoin="round"/>
<path d="M1.11182 1L23.1118 23" stroke="#A49B82" stroke-width="2" stroke-linecap="round" stroke-linejoin="round"/>
</g>
<defs>
<clipPath id="clip0_400_17419">
<rect width="24" height="24" fill="white" transform="translate(0.111816)"/>
</clipPath>
</defs>
</svg>
