<svg width="1440" height="1034" viewBox="0 0 1440 1034" fill="none" xmlns="http://www.w3.org/2000/svg">
<g clip-path="url(#clip0_653_23056)">
<path d="M56.5073 666.741C122.824 698.149 167.154 746.631 172.062 761.298C198.632 775.884 222.731 794.58 245.91 814.188C232.537 778.149 220.633 741.569 210.199 704.447L209.857 704.559C208.12 697.811 203.227 690.882 198.01 684.582C183.66 668.074 166.119 654.426 147.969 641.93C135.379 646.312 73.0517 626.871 11.0613 583.483C-55.285 537.115 -95.2531 479.713 -90.3905 472.733C-85.2853 465.422 -17.9196 483.527 48.4445 529.895C109.014 572.238 147.027 624.573 149.991 637.927C162.151 644.8 173.89 652.395 185.143 660.673C191.004 665.306 196.852 669.85 202.275 674.841C194.071 643.073 177.655 560.399 176.241 552.008C175.785 552.348 135.36 495.304 108.355 466.19C108.189 466.362 108.039 466.588 107.873 466.76C85.7429 490.001 43.037 485.188 12.4271 456.001C-18.1828 426.815 -25.073 384.35 -2.98107 361.196C19.1109 338.043 61.838 342.768 92.4486 371.936C121.064 399.221 128.947 438.128 111.803 462.059C134.347 483.583 153.717 507.985 173.054 532.296C166.89 492.311 162.318 452.144 159.341 411.795C146.922 407.681 123.662 345.526 126.276 270.469C128.971 193.067 160.065 131.31 170.198 131.663C180.846 132.034 207.054 195.786 204.358 273.188C201.911 343.466 174.898 400.776 163.384 410.496C168.623 460.036 184.421 554.854 185.146 558.525C193.403 528.576 205.262 499.802 217.554 471.309C209.749 461.237 208.847 408.059 229.906 351.805C252.572 291.266 293.536 250.681 301.499 253.662C309.847 256.799 313.693 314.205 291.046 374.726C270.301 430.102 233.343 468.426 221.898 472.581C212.161 498.247 203.79 524.411 196.817 550.964C194.294 560.641 192.32 570.454 190.908 580.355C190.908 580.355 208.668 660.657 220.776 700.209C220.891 700.462 221.026 700.68 221.124 700.932L221.017 700.928C224.335 711.787 227.784 722.615 231.364 733.411C235.93 704.347 244.678 676.086 255.075 648.47C250.441 631.536 258.507 570.329 287.149 505.517C319.845 431.419 368.433 381.103 376.22 384.54C384.357 388.132 379.567 457.813 346.852 531.928C317.396 598.686 274.163 645.738 260.931 652.232C250.125 686.005 240.411 721.08 239.245 756.577C245.089 773.12 251.246 789.55 257.714 805.866C270.38 838.056 284.361 869.74 299.427 900.893C301.53 875.559 305.673 850.435 311.815 825.768C302.396 815.123 303.876 747.64 333.004 676.512C363.705 601.562 415.226 551.722 424.597 555.57C434.424 559.612 435.718 631.123 405.017 706.073C376.162 776.499 327.785 824.332 315.36 827.047C310.259 857.694 307.138 889.174 308.831 920.128C327.221 956.697 347.216 992.373 368.818 1027.16C377.942 1041.7 387.32 1056.08 396.953 1070.29C387.373 1035.7 383.2 999.413 388.844 963.859C359.01 953.197 343.323 911.315 353.485 866.954C364.193 820.193 399.627 788.415 432.606 795.984C465.586 803.554 483.651 847.564 472.942 894.361C462.233 941.158 426.8 972.9 393.803 965.33L392.501 964.982C387.592 1010.01 397.715 1055.54 415.582 1097.07C441.523 1133.78 470.17 1168.5 501.282 1200.94L483.383 1219.03C432.333 1164.03 389.937 1101.85 351.63 1037.59C347.066 1029.85 342.599 1022.07 338.228 1014.25C332.444 1008.58 326.574 1002.98 320.618 997.465C292.076 971.676 262.395 945.902 227.648 928.897L228.731 926.374C214.777 955.627 172.383 965.321 133.118 947.945C93.2915 930.355 71.8284 891.58 85.1581 861.362C98.4879 831.145 141.647 820.909 181.402 838.515C221.157 856.12 242.691 894.898 229.361 925.115L229.134 925.516C263.525 940.499 294.052 962.39 322.965 986.217C295.892 935.292 271.981 882.745 251.369 828.874C245.485 823.333 239.525 817.95 233.473 812.652C213.806 795.746 193.567 778.98 171.327 765.559C161.953 775.051 93.6039 770.376 23.0756 736.954C-50.0782 702.391 -97.069 648.177 -92.7342 639.008C-88.1074 629.618 -16.6971 632.105 56.5073 666.741Z" fill="#F2E4B8"/>
<path d="M1382.57 654.741C1316.25 686.149 1271.92 734.631 1267.01 749.298C1240.44 763.884 1216.34 782.58 1193.16 802.188C1206.54 766.149 1218.44 729.569 1228.88 692.447L1229.22 692.559C1230.95 685.811 1235.85 678.882 1241.06 672.582C1255.41 656.074 1272.96 642.426 1291.11 629.93C1303.7 634.312 1366.02 614.871 1428.01 571.483C1494.36 525.115 1534.33 467.713 1529.46 460.733C1524.36 453.422 1456.99 471.527 1390.63 517.895C1330.06 560.238 1292.05 612.573 1289.08 625.927C1276.92 632.8 1265.18 640.395 1253.93 648.673C1248.07 653.306 1242.22 657.85 1236.8 662.841C1245 631.073 1261.42 548.399 1262.83 540.008C1263.29 540.348 1303.71 483.304 1330.72 454.19C1330.89 454.362 1331.03 454.588 1331.2 454.76C1353.33 478.001 1396.04 473.188 1426.65 444.001C1457.26 414.815 1464.15 372.35 1442.06 349.196C1419.96 326.043 1377.24 330.768 1346.63 359.936C1318.01 387.221 1310.13 426.128 1327.27 450.059C1304.73 471.583 1285.36 495.985 1266.02 520.296C1272.18 480.311 1276.76 440.144 1279.73 399.795C1292.15 395.681 1315.41 333.526 1312.8 258.469C1310.1 181.067 1279.01 119.31 1268.88 119.663C1258.23 120.034 1232.02 183.786 1234.72 261.188C1237.16 331.466 1264.18 388.776 1275.69 398.496C1270.45 448.036 1254.65 542.854 1253.93 546.525C1245.67 516.576 1233.81 487.802 1221.52 459.309C1229.32 449.237 1230.23 396.059 1209.17 339.805C1186.5 279.266 1145.54 238.681 1137.58 241.662C1129.23 244.799 1125.38 302.205 1148.03 362.726C1168.77 418.102 1205.73 456.426 1217.18 460.581C1226.91 486.247 1235.28 512.411 1242.26 538.964C1244.78 548.641 1246.75 558.454 1248.17 568.355C1248.17 568.355 1230.41 648.657 1218.3 688.209C1218.18 688.462 1218.05 688.68 1217.95 688.932L1218.06 688.928C1214.74 699.787 1211.29 710.615 1207.71 721.411C1203.14 692.347 1194.4 664.086 1184 636.47C1188.63 619.536 1180.57 558.329 1151.93 493.517C1119.23 419.419 1070.64 369.103 1062.85 372.54C1054.72 376.132 1059.51 445.813 1092.22 519.928C1121.68 586.686 1164.91 633.738 1178.14 640.232C1188.95 674.005 1198.66 709.08 1199.83 744.577C1193.98 761.12 1187.83 777.55 1181.36 793.866C1168.69 826.056 1154.71 857.74 1139.65 888.893C1137.54 863.559 1133.4 838.435 1127.26 813.768C1136.68 803.123 1135.2 735.64 1106.07 664.512C1075.37 589.562 1023.85 539.722 1014.48 543.57C1004.65 547.612 1003.36 619.123 1034.06 694.073C1062.91 764.499 1111.29 812.332 1123.71 815.047C1128.81 845.694 1131.94 877.174 1130.24 908.128C1111.85 944.697 1091.86 980.373 1070.26 1015.16C1061.13 1029.7 1051.75 1044.08 1042.12 1058.29C1051.7 1023.7 1055.87 987.413 1050.23 951.859C1080.06 941.197 1095.75 899.315 1085.59 854.954C1074.88 808.193 1039.45 776.415 1006.47 783.984C973.488 791.554 955.424 835.564 966.133 882.361C976.842 929.158 1012.27 960.9 1045.27 953.33L1046.57 952.982C1051.48 998.007 1041.36 1043.54 1023.49 1085.07C997.551 1121.78 968.905 1156.5 937.792 1188.94L955.691 1207.03C1006.74 1152.03 1049.14 1089.85 1087.44 1025.59C1092.01 1017.85 1096.48 1010.07 1100.85 1002.25C1106.63 996.578 1112.5 990.984 1118.46 985.465C1147 959.676 1176.68 933.902 1211.43 916.897L1210.34 914.374C1224.3 943.627 1266.69 953.321 1305.96 935.945C1345.78 918.355 1367.25 879.58 1353.92 849.362C1340.59 819.145 1297.43 808.909 1257.67 826.515C1217.92 844.12 1196.38 882.898 1209.71 913.115L1209.94 913.516C1175.55 928.499 1145.02 950.39 1116.11 974.217C1143.18 923.292 1167.09 870.745 1187.71 816.874C1193.59 811.333 1199.55 805.95 1205.6 800.652C1225.27 783.746 1245.51 766.98 1267.75 753.559C1277.12 763.051 1345.47 758.376 1416 724.954C1489.15 690.391 1536.14 636.177 1531.81 627.008C1527.18 617.618 1455.77 620.105 1382.57 654.741Z" fill="#F2E4B8"/>
</g>
<defs>
<clipPath id="clip0_653_23056">
<rect width="1440" height="1034" fill="white"/>
</clipPath>
</defs>
</svg>
