<svg width="482" height="495" viewBox="0 0 482 495" fill="none" xmlns="http://www.w3.org/2000/svg">
    <path d="M316.321 95.8719C310.533 90.1665 303.08 86.4506 295.04 85.2619C291.472 80.263 286.853 76.1057 281.507 73.0822C276.161 70.0586 270.218 68.242 264.095 67.7599C255.209 67.1701 246.297 68.397 237.901 71.3658C229.506 74.3346 221.803 78.983 215.264 85.0274C206.848 92.931 200.709 102.949 197.488 114.036C191.042 111.485 184.118 110.368 177.197 110.762C170.276 111.157 163.524 113.053 157.41 116.319C151.295 119.586 145.965 124.144 141.79 129.677C137.614 135.211 134.693 141.587 133.23 148.363C128.438 147.144 123.537 146.4 118.599 146.142L111.591 145.918C102.121 145.701 94.6369 145.538 85.8978 140.014C85.1949 137.925 83.7415 136.172 81.8195 135.094C79.8974 134.016 77.6436 133.69 75.4949 134.179C65.8558 135.672 53.9613 149.565 50.3344 158.113C49.5614 159.996 49.2484 162.036 49.4214 164.065C49.5945 166.093 50.2486 168.05 51.3295 169.775C51.8989 170.804 52.6953 171.69 53.6582 172.365C54.6211 173.04 55.7252 173.487 56.8866 173.671C65.5062 187.066 80.9698 191.464 103.241 186.421C109.121 184.954 115.124 184.03 121.174 183.661C120.866 191.89 116.72 197.33 107.563 201.751L106.821 202.339C101.262 204.508 96.1024 207.585 91.5527 211.445C88.2596 214.495 85.703 218.254 84.0765 222.437C82.45 226.62 81.7961 231.119 82.1642 235.592C82.208 236.283 82.4581 236.945 82.8822 237.492L81.2129 239.761C65.2569 264.438 77.1112 294.706 97.5261 311.781C105.958 318.429 115.025 324.229 124.595 329.098C129.662 331.912 134.896 334.804 139.89 337.99C156.798 348.651 167.402 363.887 178.51 380.09L179.252 381.025C198.097 408.117 221.011 424.368 249.019 430.276C276.224 436.032 310.813 431.419 323.06 407.895C326.913 408.318 330.789 408.492 334.664 408.418C344.243 408.51 353.581 405.415 361.209 399.62C370.631 392.152 377.065 379.855 380.603 362.71C382.377 354.212 383.135 345.534 382.861 336.858C396.554 334.779 411.504 330.443 419.753 315.132C427.107 301.476 427.434 284.72 420.681 265.329C408.685 230.706 387.142 198.818 366.301 167.949C362.546 162.415 358.873 156.92 355.252 151.489C351.982 146.568 348.797 141.422 345.497 136C337.322 121.562 327.534 108.1 316.321 95.8719ZM58.7425 158.646C59.5516 157.48 60.354 156.371 61.3043 155.25C62.8823 153.264 64.705 151.189 66.837 148.974L67.7082 148.283C69.0578 146.769 70.5427 145.381 72.1445 144.137C74.2741 142.449 77.1355 141.022 78.6315 141.517C78.4836 142.139 78.527 142.791 78.7561 143.387C78.9852 143.984 79.3892 144.497 79.9151 144.86C79.9095 145.687 79.8434 146.512 79.7174 147.329C79.1923 151.107 73.1548 156.68 71.1531 158.529C68.109 161.449 64.4141 163.603 60.3734 164.814C60.2108 164.318 59.9283 163.869 59.5508 163.509C59.1733 163.148 58.7125 162.886 58.2095 162.746C57.8915 162.085 57.7726 161.345 57.8673 160.617C57.9619 159.889 58.266 159.205 58.7425 158.646ZM114.352 176.511C114.295 176.668 114.265 176.833 114.266 177L111.371 177.456C112.077 174.374 113.299 171.434 114.985 168.76C115.187 168.442 115.323 168.086 115.384 167.715C115.446 167.343 115.432 166.963 115.343 166.597C115.254 166.231 115.092 165.887 114.867 165.585C114.641 165.283 114.358 165.029 114.032 164.839C113.749 164.645 113.429 164.511 113.092 164.446C112.755 164.38 112.408 164.384 112.072 164.458C111.737 164.532 111.42 164.674 111.142 164.875C110.863 165.076 110.629 165.332 110.453 165.627C107.939 169.571 106.233 173.977 105.437 178.586L100.855 179.434L103.481 171.678C103.643 171.226 103.678 170.738 103.583 170.267C103.488 169.796 103.266 169.361 102.941 169.007C102.607 168.625 102.179 168.337 101.698 168.174C101.218 168.01 100.703 167.976 100.206 168.075C99.7563 168.123 99.3298 168.298 98.9757 168.578C98.6216 168.859 98.3544 169.234 98.2051 169.661L94.5942 180.35C93.3972 180.564 92.1491 180.712 90.9333 180.835L94.1736 173.854C94.3241 173.541 94.409 173.2 94.4233 172.853C94.4375 172.506 94.3807 172.16 94.2563 171.835C94.132 171.511 93.9427 171.215 93.7001 170.966C93.4576 170.718 93.1668 170.521 92.8455 170.389C92.5111 170.222 92.1466 170.123 91.7736 170.1C91.4006 170.076 91.0266 170.127 90.6736 170.25C90.3207 170.373 89.996 170.566 89.7186 170.816C89.4412 171.067 89.2168 171.37 89.0586 171.709L84.7597 181C83.048 180.996 81.3386 180.876 79.643 180.642L86.0554 164.738C86.202 164.409 86.2794 164.053 86.2829 163.692C86.2864 163.332 86.2159 162.974 86.0758 162.642C85.9357 162.31 85.7289 162.01 85.4682 161.761C85.2076 161.512 84.8986 161.319 84.5605 161.195C83.8855 160.915 83.1273 160.915 82.4522 161.194C81.7771 161.473 81.2402 162.008 80.9593 162.683L74.3009 178.94L74.1183 179.505C69.9028 177.887 66.2863 175.013 63.7584 171.272L64.1133 170.991C73.2357 167.399 80.7399 160.611 85.2265 151.893C85.6891 150.95 86.0493 149.96 86.3009 148.94C90.9943 151.701 96.2563 153.352 101.685 153.769C105.266 153.978 108.693 153.993 112.005 153.996C118.881 153.749 125.761 154.368 132.482 155.838C132.674 156.288 132.96 156.692 133.321 157.022C133.683 157.352 134.111 157.6 134.576 157.751C135.081 157.939 135.621 158.014 136.158 157.97C136.695 157.925 137.216 157.763 137.683 157.495C156.173 163.855 171.901 176.606 186.222 188.844C186.283 188.985 186.38 189.107 186.504 189.198L188.88 191.203C183.915 195.46 179.381 200.197 175.345 205.345C174.475 204.248 173.555 203.086 172.383 202.071C172.851 202.45 173.435 202.657 174.038 202.658C174.641 202.658 175.225 202.452 175.694 202.074C175.996 201.84 176.243 201.543 176.419 201.204C176.595 200.865 176.695 200.492 176.713 200.111C176.722 199.436 176.498 198.778 176.078 198.25C175.667 197.67 175.043 197.277 174.342 197.157C173.641 197.037 172.922 197.201 172.342 197.612C171.762 198.023 171.369 198.647 171.249 199.348C171.13 200.049 171.293 200.768 171.704 201.348C171.474 201.058 171.244 200.767 170.988 200.445L171.185 196.716C171.21 196.23 171.105 195.747 170.882 195.314C170.66 194.882 170.327 194.516 169.917 194.254C169.487 193.979 168.992 193.819 168.482 193.791C167.972 193.762 167.463 193.867 167.005 194.093C166.472 194.374 166.055 194.834 165.829 195.393C165.496 194.973 165.138 194.522 164.58 194.281L164.119 190.916C164.088 190.565 163.985 190.225 163.817 189.915C163.65 189.605 163.421 189.332 163.144 189.114C162.868 188.896 162.55 188.736 162.21 188.644C161.87 188.553 161.514 188.531 161.166 188.582C160.764 188.616 160.376 188.739 160.028 188.942C159.68 189.145 159.381 189.423 159.154 189.756L158.975 189.53L159.055 188.836C159.141 188.21 158.996 187.575 158.647 187.049C158.297 186.523 157.768 186.142 157.159 185.978C156.735 185.842 156.286 185.805 155.846 185.871C155.407 185.937 154.988 186.104 154.624 186.359C149.868 183.187 144.709 180.668 139.283 178.869L140.008 175.143C140.114 174.712 140.101 174.261 139.969 173.838C139.837 173.414 139.592 173.035 139.26 172.741C138.87 172.409 138.398 172.186 137.893 172.097C137.388 172.008 136.869 172.055 136.388 172.233C135.918 172.388 135.499 172.669 135.176 173.045C134.854 173.42 134.64 173.877 134.558 174.366L133.986 177.289C132.785 177.033 131.699 176.79 130.665 176.611L131.753 172.019C131.833 171.7 131.847 171.368 131.795 171.043C131.742 170.718 131.625 170.407 131.448 170.129C131.272 169.851 131.042 169.611 130.77 169.425C130.499 169.239 130.192 169.11 129.869 169.046C129.496 168.947 129.106 168.922 128.723 168.975C128.34 169.027 127.971 169.155 127.638 169.351C127.304 169.546 127.013 169.806 126.781 170.116C126.549 170.425 126.38 170.777 126.285 171.152L125.576 174.235C124.841 173.951 124.035 173.909 123.275 174.115C122.737 174.231 122.234 174.468 121.803 174.81C121.372 175.151 121.026 175.587 120.79 176.084L119.903 176.157C120.975 172.962 122.314 169.862 123.906 166.891C124.082 166.61 124.196 166.294 124.241 165.966C124.287 165.637 124.262 165.303 124.168 164.985C124.075 164.667 123.915 164.372 123.7 164.12C123.484 163.868 123.218 163.665 122.918 163.523C122.579 163.328 122.205 163.203 121.818 163.156C121.43 163.108 121.037 163.138 120.661 163.245C120.285 163.352 119.935 163.533 119.63 163.777C119.326 164.022 119.073 164.325 118.888 164.669C116.945 168.396 115.383 172.31 114.224 176.35L114.352 176.511ZM165.578 209.461L162.864 209.616L161.218 202.567C161.826 202.873 162.523 202.953 163.184 202.795C163.824 203.601 164.463 204.408 165.335 204.978C165.426 205.529 165.677 206.04 166.057 206.449C166.437 206.858 166.929 207.146 167.472 207.277C168.393 208.438 169.313 209.6 170.234 210.762C170.403 211.012 170.591 211.25 170.797 211.471L169.184 214.01L169.2 213.367C169.236 212.347 168.867 211.354 168.175 210.604C167.482 209.854 166.521 209.409 165.501 209.364L165.578 209.461ZM106.702 209.945L110.82 208.048C115.102 206.501 119.009 204.067 122.285 200.905C126.349 196.166 128.495 190.08 128.304 183.841C132.274 184.256 136.167 185.219 139.871 186.704C141.271 187.276 142.746 187.945 144.35 188.775C144.552 189.363 144.949 189.864 145.475 190.195C145.785 190.388 146.131 190.518 146.492 190.574C146.853 190.631 147.222 190.615 147.577 190.526C149.371 191.561 151.109 192.692 152.782 193.913L152.582 195.648C152.526 196.025 152.557 196.41 152.672 196.774C152.787 197.138 152.984 197.471 153.247 197.747C153.649 198.183 154.179 198.481 154.761 198.596C154.914 198.79 154.784 199.156 154.834 199.484L157.236 209.873C155.223 210.05 153.158 210.163 151.023 210.385L149.896 196.568C149.94 196.177 149.891 195.782 149.754 195.413C149.617 195.045 149.395 194.714 149.107 194.447C148.818 194.179 148.471 193.984 148.093 193.875C147.716 193.767 147.318 193.748 146.931 193.822C146.534 193.817 146.141 193.898 145.778 194.059C145.415 194.22 145.091 194.458 144.828 194.756C144.565 195.054 144.37 195.405 144.256 195.785C144.141 196.166 144.11 196.566 144.165 196.96L145.472 210.739C142.77 211.042 140.235 211.422 137.623 211.706L137.816 211.553C137.996 211.217 138.094 210.843 138.102 210.462C138.111 210.082 138.029 209.704 137.865 209.36C136.862 207.11 136.394 204.659 136.496 202.197C136.525 201.704 136.416 201.211 136.182 200.776C135.948 200.34 135.597 199.977 135.17 199.729C134.75 199.453 134.265 199.293 133.763 199.266C133.262 199.239 132.762 199.345 132.315 199.574C131.915 199.776 131.579 200.085 131.343 200.466C131.108 200.848 130.982 201.287 130.981 201.735C130.849 205.088 131.452 208.429 132.75 211.523C132.922 211.872 133.166 212.179 133.466 212.427C113.871 215.874 99.3703 221.64 89.6099 230.006C90.9225 219.93 99.4586 213.532 106.702 209.945ZM319.782 112.304C319.433 112.474 319.124 112.718 318.879 113.02C318.545 113.408 318.318 113.876 318.218 114.378C318.119 114.88 318.152 115.399 318.313 115.885C318.436 116.307 318.661 116.692 318.966 117.008C319.272 117.324 319.649 117.562 320.066 117.7C320.589 123.343 320.569 129.023 320.008 134.662L319.921 136.938C319.906 137.326 319.972 137.712 320.112 138.074C320.253 138.436 320.467 138.765 320.74 139.041C321.013 139.317 321.339 139.534 321.699 139.679C322.059 139.824 322.445 139.893 322.833 139.883C323.171 139.907 323.51 139.861 323.829 139.746C324.148 139.632 324.439 139.452 324.684 139.218C324.929 138.984 325.123 138.702 325.252 138.388C325.382 138.075 325.444 137.739 325.436 137.4L325.52 131.607L325.794 120.883C326.535 121.819 327.252 122.722 327.767 123.837L330.597 128.004C330.368 128.476 330.276 129.004 330.333 129.526C331.694 141.738 332.044 154.041 331.381 166.311C331.351 166.79 331.447 167.269 331.66 167.699C331.872 168.13 332.193 168.498 332.591 168.766C333.023 169.048 333.52 169.214 334.035 169.247C334.549 169.281 335.064 169.182 335.529 168.96C335.929 168.758 336.265 168.449 336.501 168.068C336.736 167.686 336.862 167.247 336.863 166.799C337.384 156.76 337.236 146.698 336.422 136.679C338.753 140.084 341.052 143.515 343.351 146.947C343.215 147.327 343.178 147.737 343.243 148.136C344.472 158.502 344.597 168.969 343.615 179.362C343.549 179.745 343.564 180.138 343.66 180.514C343.755 180.891 343.93 181.243 344.171 181.548C344.413 181.853 344.716 182.103 345.061 182.282C345.406 182.462 345.785 182.566 346.173 182.588C346.528 182.64 346.889 182.618 347.235 182.524C347.581 182.431 347.904 182.268 348.185 182.045C348.466 181.823 348.699 181.545 348.869 181.23C349.039 180.914 349.142 180.567 349.174 180.21C349.924 172.255 350.046 164.253 349.54 156.279C350.486 157.473 351.407 158.635 352.069 160.001L357.95 168.946C358.66 180.548 357.698 192.192 355.092 203.52C355.003 203.843 354.982 204.181 355.03 204.512C355.077 204.843 355.193 205.161 355.369 205.446C355.545 205.73 355.778 205.975 356.053 206.165C356.329 206.356 356.641 206.487 356.969 206.551C357.344 206.642 357.733 206.658 358.113 206.597C358.494 206.537 358.859 206.403 359.187 206.201C359.516 205.999 359.801 205.735 360.027 205.422C360.252 205.11 360.414 204.756 360.503 204.381C362.514 195.525 363.551 186.476 363.596 177.395C365.863 180.852 368.328 184.625 370.658 188.294C371.401 196.88 370.953 205.526 369.326 213.989C369.25 214.322 369.244 214.666 369.309 215.001C369.373 215.337 369.506 215.655 369.699 215.936C369.892 216.217 370.142 216.455 370.431 216.635C370.721 216.815 371.045 216.933 371.383 216.982C371.759 217.072 372.15 217.084 372.532 217.017C372.913 216.95 373.277 216.807 373.6 216.594C373.924 216.382 374.201 216.106 374.414 215.783C374.627 215.459 374.772 215.096 374.84 214.715C375.971 209.05 376.578 203.293 376.654 197.516C381.48 205.197 385.909 212.508 390.114 219.736C388.798 225.7 386.23 231.317 382.58 236.214C382.352 236.49 382.184 236.811 382.088 237.156C381.992 237.502 381.97 237.863 382.023 238.218C382.075 238.572 382.203 238.912 382.395 239.214C382.588 239.516 382.842 239.774 383.142 239.971C383.423 240.204 383.75 240.376 384.1 240.477C384.451 240.579 384.819 240.608 385.181 240.562C385.543 240.516 385.892 240.396 386.206 240.21C386.521 240.024 386.794 239.776 387.008 239.481C389.981 235.506 392.338 231.105 393.999 226.428C395.626 229.341 397.175 232.158 398.597 234.814C398.121 234.935 397.682 235.175 397.323 235.511C396.963 235.847 396.694 236.268 396.541 236.735C396.388 237.202 396.355 237.701 396.445 238.184C396.535 238.668 396.746 239.121 397.058 239.501C394.845 244.176 392.248 248.659 389.294 252.905L388.18 254.681C387.792 255.351 387.686 256.148 387.886 256.896C388.085 257.644 388.573 258.283 389.242 258.672C389.529 258.85 389.848 258.968 390.181 259.02C390.514 259.071 390.854 259.055 391.181 258.973C391.508 258.89 391.814 258.743 392.083 258.539C392.352 258.336 392.576 258.08 392.744 257.788C393.665 256.165 394.636 254.607 395.615 252.991C397.468 249.894 399.321 246.797 400.995 243.473C401.373 242.847 401.694 242.188 401.955 241.504C403.555 244.649 405.059 247.607 406.473 250.584C412.355 261.449 416.362 273.227 418.326 285.425C418.1 285.149 417.816 284.927 417.494 284.773C417.173 284.619 416.822 284.538 416.465 284.535L400.545 284.334C400.043 284.302 399.543 284.412 399.1 284.651C398.658 284.89 398.292 285.249 398.044 285.686C397.778 286.116 397.627 286.607 397.604 287.113C397.582 287.618 397.689 288.12 397.915 288.573C398.142 288.954 398.464 289.271 398.849 289.49C399.235 289.709 399.671 289.824 400.115 289.824L416.035 290.025C416.699 290.052 417.349 289.835 417.864 289.416C418.157 289.26 418.419 289.052 418.638 288.802C418.777 291.433 418.707 294.071 418.429 296.691C416.163 315.508 404.921 326.047 382.944 330.068C378.796 283.605 347.307 244.206 315.322 207.828C314.913 207.342 314.38 206.976 313.78 206.768C313.18 206.559 312.536 206.516 311.913 206.642C311.249 206.763 310.626 207.046 310.097 207.465C309.568 207.884 309.15 208.427 308.88 209.046C308.699 209.604 308.671 210.2 308.801 210.773C308.931 211.345 309.213 211.871 309.618 212.296C334.994 241.199 366.384 276.894 374.261 319.246C364.632 306.182 353.92 293.953 342.239 282.687C342.009 282.452 341.733 282.267 341.428 282.144C341.124 282.021 340.797 281.962 340.469 281.971C340.141 281.979 339.818 282.056 339.52 282.195C339.223 282.334 338.957 282.533 338.74 282.78C338.461 283.053 338.239 283.38 338.088 283.74C337.937 284.101 337.86 284.488 337.861 284.879C337.862 285.27 337.942 285.656 338.095 286.016C338.248 286.376 338.472 286.701 338.753 286.972C352.126 299.839 364.172 314.017 374.71 329.291C374.966 329.649 375.304 329.94 375.697 330.138C375.719 330.477 375.758 330.814 375.814 331.148C375.293 331.46 374.866 331.906 374.577 332.44C374.289 332.974 374.149 333.576 374.174 334.182C374.183 334.831 374.362 335.466 374.693 336.024C375.025 336.582 375.497 337.043 376.063 337.361C376.105 339.271 376.141 341.239 376.062 343.193C375.982 345.147 375.917 346.722 375.78 348.67C370.397 339.928 364.134 331.76 357.089 324.292C356.74 323.932 356.303 323.667 355.822 323.524C355.34 323.381 354.83 323.365 354.341 323.476C353.853 323.603 353.404 323.847 353.033 324.187C352.662 324.527 352.379 324.953 352.21 325.428C352.102 325.854 352.106 326.3 352.221 326.724C352.336 327.148 352.559 327.535 352.868 327.848C361.342 336.781 368.657 346.745 374.64 357.506C373.732 363.342 372.283 369.081 370.312 374.648C366.53 360.899 360.236 347.969 351.748 336.511C351.541 336.223 351.277 335.98 350.973 335.798C350.669 335.615 350.33 335.497 349.978 335.451C349.627 335.405 349.269 335.432 348.928 335.529C348.587 335.626 348.269 335.793 347.995 336.018C347.696 336.226 347.442 336.493 347.249 336.801C347.055 337.11 346.925 337.454 346.867 337.814C346.809 338.173 346.824 338.541 346.911 338.895C346.998 339.249 347.155 339.581 347.373 339.873C356.799 352.468 363.401 366.946 366.727 382.322C366.767 382.428 366.838 382.518 366.932 382.581C365.085 386.063 362.711 389.238 359.893 391.994C358.019 377.648 353.099 363.868 345.462 351.58C345.3 351.292 345.08 351.04 344.815 350.841C344.551 350.642 344.249 350.501 343.927 350.425C343.605 350.349 343.271 350.341 342.946 350.401C342.621 350.461 342.312 350.588 342.038 350.773L341.748 351.004C341.172 351.44 340.778 352.074 340.641 352.783C340.505 353.492 340.636 354.227 341.01 354.845C348.355 366.718 352.994 380.063 354.599 393.931C354.655 394.539 354.921 395.109 355.35 395.542C353.496 396.728 351.534 397.737 349.492 398.557C349.707 398.08 349.798 397.556 349.756 397.034C348.288 386.587 345.245 376.423 340.73 366.888C340.573 366.553 340.35 366.254 340.074 366.007C339.799 365.76 339.477 365.571 339.127 365.452C338.778 365.332 338.407 365.284 338.039 365.31C337.67 365.336 337.31 365.436 336.981 365.604C336.655 365.737 336.36 365.936 336.114 366.189C335.869 366.441 335.679 366.742 335.555 367.072C335.432 367.402 335.378 367.754 335.397 368.105C335.416 368.457 335.508 368.801 335.666 369.115C339.994 378.179 342.897 387.857 344.274 397.807C344.341 398.234 344.518 398.637 344.786 398.976C345.055 399.316 345.407 399.58 345.808 399.743C341.429 400.912 336.906 401.454 332.375 401.353C330.472 401.338 328.524 401.201 326.77 400.91L326.875 400.512C327.06 399.88 327.071 399.21 326.908 398.572C326.744 397.934 326.412 397.352 325.946 396.887C325.489 396.405 324.916 396.049 324.282 395.852C323.648 395.656 322.974 395.626 322.324 395.765C321.774 395.912 321.274 396.205 320.876 396.613C320.478 397.021 320.197 397.528 320.063 398.082L319.424 400.06C299.83 396.888 281.662 387.836 267.33 374.103C267.015 373.788 266.638 373.543 266.222 373.383C265.806 373.224 265.361 373.154 264.917 373.178C264.279 373.247 263.672 373.491 263.165 373.884C262.761 373.741 262.332 373.682 261.904 373.714C261.477 373.745 261.06 373.865 260.682 374.066C260.201 374.325 259.819 374.737 259.597 375.236C259.375 375.735 259.325 376.294 259.454 376.825L263.69 399.735C263.747 400.212 263.935 400.663 264.233 401.039C264.531 401.415 264.927 401.701 265.378 401.865C265.857 402.041 266.374 402.089 266.878 402.003C267.381 401.918 267.854 401.702 268.248 401.377C268.594 401.08 268.855 400.696 269.003 400.265C269.151 399.834 269.18 399.371 269.088 398.924L266.037 382.745C267.504 383.999 268.785 385.085 270.022 386.049C270.585 392.156 271.578 398.215 272.993 404.182C273.096 404.675 273.333 405.13 273.679 405.496C274.024 405.862 274.465 406.125 274.951 406.255C275.434 406.411 275.95 406.437 276.446 406.33C276.943 406.223 277.402 405.986 277.777 405.644C278.089 405.335 278.314 404.949 278.43 404.525C278.545 404.102 278.548 403.655 278.437 403.23C277.428 398.992 276.642 394.705 276.085 390.385C278.501 392.042 280.989 393.59 283.49 395.022L286.546 407.363C286.664 407.851 286.911 408.299 287.261 408.659C287.611 409.019 288.052 409.279 288.537 409.41C289.021 409.558 289.534 409.579 290.029 409.472C290.524 409.365 290.983 409.134 291.362 408.799C291.667 408.485 291.888 408.099 292.003 407.677C292.119 407.255 292.125 406.81 292.023 406.384L290.04 398.447C290.649 398.752 291.265 398.999 291.875 399.304L292.003 399.466C291.987 399.778 292.034 400.091 292.141 400.385C292.248 400.679 292.412 400.949 292.625 401.179C293.804 402.555 294.463 404.301 294.487 406.113C294.477 406.618 294.603 407.117 294.851 407.558C295.098 407.999 295.459 408.366 295.896 408.62C296.335 408.871 296.829 409.009 297.334 409.021C297.839 409.034 298.339 408.92 298.789 408.691C299.163 408.474 299.471 408.16 299.68 407.781C299.889 407.403 299.991 406.975 299.976 406.543C299.979 405.183 299.791 403.829 299.416 402.522C304.828 404.453 310.392 405.93 316.049 406.938C299.801 433.632 252.663 426.389 230.422 416.489C214.578 409.146 200.888 397.853 190.666 383.694C187.521 379.726 184.711 375.385 181.849 371.244C174.964 360.185 166.655 350.079 157.134 341.187C148.4 334.267 139.038 328.179 129.169 323.004C107.658 310.843 85.4349 298.249 82.2093 270.913C81.2451 265.82 81.3746 260.581 82.5892 255.543C83.8039 250.504 86.0759 245.782 89.2546 241.688C101.551 227.109 127.438 218.675 166.304 216.608C166.889 216.594 167.458 216.416 167.946 216.095C158.532 231.609 154.264 249.702 155.751 267.788C155.87 268.67 156.333 269.47 157.039 270.012C157.744 270.555 158.636 270.797 159.519 270.686C160.007 270.652 160.483 270.521 160.92 270.3C161.356 270.079 161.744 269.773 162.06 269.4C162.376 269.027 162.615 268.594 162.761 268.128C162.908 267.661 162.959 267.17 162.913 266.683C160.41 240.192 173.844 211.472 197.325 193.44C218.174 177.389 242.732 172.846 264.711 180.957C265.162 181.121 265.642 181.193 266.121 181.168C266.6 181.143 267.069 181.022 267.501 180.813C267.933 180.603 268.318 180.309 268.633 179.947C268.949 179.586 269.189 179.165 269.338 178.709C269.524 178.28 269.619 177.817 269.616 177.349C269.614 176.882 269.514 176.42 269.324 175.993C269.134 175.566 268.857 175.183 268.511 174.869C268.165 174.554 267.758 174.315 267.314 174.166C243.614 165.474 217.192 169.919 194.734 186.458L190.282 182.631C190.528 182.397 190.723 182.115 190.855 181.803C190.987 181.491 191.053 181.154 191.049 180.815C191.115 173.541 190.624 166.273 189.579 159.075C189.477 158.348 189.09 157.691 188.503 157.25C187.917 156.808 187.179 156.618 186.452 156.72C185.725 156.822 185.069 157.209 184.627 157.796C184.186 158.382 183.995 159.12 184.097 159.847C185.062 166.035 185.573 172.284 185.626 178.546L184.134 177.26L182.464 149.899C182.452 149.455 182.322 149.022 182.087 148.645C181.853 148.268 181.523 147.96 181.13 147.752C180.668 147.532 180.156 147.439 179.646 147.483C179.136 147.527 178.647 147.706 178.229 148.002C177.806 148.264 177.463 148.638 177.241 149.084C177.019 149.529 176.925 150.028 176.97 150.523L178.29 172.803C176.009 170.986 173.907 169.394 171.882 167.9C172.144 167.599 172.326 167.237 172.412 166.848C172.498 166.459 172.485 166.054 172.375 165.671C171.091 160.298 170.567 154.772 170.816 149.254C170.857 148.766 170.764 148.276 170.546 147.838C170.328 147.399 169.994 147.028 169.58 146.767C169.145 146.492 168.649 146.331 168.136 146.297C167.623 146.264 167.109 146.358 166.642 146.573C166.253 146.789 165.926 147.101 165.693 147.479C165.459 147.858 165.326 148.29 165.308 148.734C165.053 153.974 165.439 159.225 166.458 164.371C159.316 159.399 151.637 155.247 143.566 151.992C142.475 151.543 141.403 151.184 140.131 150.774C141.321 144.919 143.782 139.397 147.341 134.597C150.899 129.798 155.468 125.839 160.725 122.999C166.103 120.189 172.033 118.594 178.095 118.328C184.158 118.063 190.204 119.132 195.808 121.462C192.997 137.512 196.046 154.038 204.398 168.029C204.974 168.893 205.856 169.508 206.866 169.75C207.876 169.992 208.94 169.843 209.845 169.333C210.221 169.132 210.551 168.855 210.813 168.519C211.075 168.183 211.263 167.796 211.366 167.382C211.469 166.969 211.485 166.539 211.411 166.119C211.337 165.699 211.177 165.3 210.939 164.946C205.342 156.275 202.148 146.273 201.683 135.962C201.217 125.652 203.497 115.403 208.289 106.262C213.081 97.1217 220.214 89.417 228.959 83.9355C237.704 78.454 247.747 75.3921 258.062 75.0627C262.952 74.8222 267.841 75.5718 272.434 77.2667C277.027 78.9616 281.231 81.5667 284.792 84.9259C281.97 85.0654 279.161 85.3963 276.384 85.9165C259.94 89.1346 245.282 98.3551 235.262 111.784L234.908 104.709C234.896 104.272 234.769 103.847 234.539 103.475C234.309 103.103 233.985 102.8 233.599 102.594C233.14 102.379 232.633 102.285 232.127 102.318C231.621 102.352 231.132 102.513 230.705 102.787C230.281 103.048 229.939 103.423 229.717 103.868C229.494 104.314 229.401 104.812 229.446 105.308L230.087 118.512C230.096 118.703 230.123 118.892 230.168 119.078C228.983 120.963 227.939 122.894 226.784 125.017L225.485 116.748C225.433 116.386 225.308 116.037 225.117 115.725C224.926 115.412 224.672 115.142 224.372 114.932C224.073 114.721 223.733 114.575 223.374 114.501C223.015 114.427 222.645 114.428 222.286 114.503C221.632 114.6 221.034 114.925 220.597 115.421C220.346 115.709 220.165 116.052 220.066 116.421C219.967 116.791 219.954 117.178 220.028 117.553L222.602 134.058C221.705 136.24 220.884 138.519 220.108 140.92L216.808 128.669C216.591 127.913 216.084 127.275 215.398 126.893C214.711 126.511 213.901 126.418 213.145 126.633C212.822 126.71 212.517 126.852 212.251 127.051C211.984 127.25 211.761 127.501 211.596 127.79C211.431 128.079 211.327 128.398 211.29 128.729C211.253 129.059 211.284 129.394 211.382 129.711L217.048 150.648C217.166 150.834 217.303 151.007 217.457 151.164C216.742 154.305 216.268 156.888 215.915 159.426C215.852 159.884 215.882 160.349 216.003 160.794C216.125 161.24 216.335 161.656 216.622 162.018C216.909 162.38 217.266 162.68 217.672 162.9C218.078 163.12 218.524 163.255 218.984 163.298C219.464 163.366 219.954 163.335 220.422 163.208C220.89 163.08 221.327 162.86 221.707 162.558C222.088 162.257 222.403 161.882 222.633 161.455C222.864 161.028 223.006 160.559 223.05 160.076C224.017 153.188 225.694 146.419 228.054 139.876C228.319 139.608 228.522 139.285 228.649 138.93C228.776 138.575 228.824 138.197 228.79 137.822C238.843 111.729 257.946 95.0661 280.92 92.3028C283.193 92.0333 285.485 91.9748 287.769 92.1282C291.655 103.927 292.977 116.42 291.647 128.772C291.573 129.155 291.583 129.551 291.676 129.93C291.769 130.31 291.943 130.665 292.186 130.971C292.428 131.277 292.734 131.528 293.083 131.705C293.431 131.882 293.813 131.982 294.204 131.998C294.561 132.042 294.924 132.015 295.27 131.917C295.617 131.82 295.941 131.654 296.223 131.431C296.505 131.207 296.74 130.93 296.914 130.614C297.088 130.299 297.198 129.952 297.237 129.594C298.55 117.28 297.38 104.827 293.796 92.9723C296.165 93.3802 298.476 94.0708 300.68 95.0291C300.527 95.3688 300.454 95.7393 300.466 96.1117C300.479 96.4842 300.578 96.8487 300.754 97.1771C305.833 107.423 307.263 119.096 304.808 130.265C304.723 130.593 304.707 130.935 304.761 131.269C304.816 131.604 304.94 131.923 305.125 132.207C305.31 132.49 305.553 132.732 305.837 132.916C306.121 133.101 306.441 133.224 306.775 133.277C307.15 133.364 307.539 133.375 307.918 133.311C308.298 133.247 308.661 133.109 308.987 132.904C309.313 132.7 309.595 132.433 309.817 132.119C310.04 131.805 310.198 131.45 310.283 131.075C312.554 120.426 311.646 109.345 307.67 99.2083C312.275 103.012 316.349 107.416 319.782 112.304Z"
          fill="#F4E6C1"/>
    <path d="M177.485 273.469C177.414 273.144 177.274 272.837 177.074 272.57C176.875 272.302 176.62 272.08 176.329 271.919C176.037 271.758 175.714 271.66 175.381 271.634C175.049 271.607 174.714 271.652 174.4 271.764C174.023 271.856 173.668 272.024 173.357 272.256C173.046 272.489 172.785 272.782 172.59 273.118C172.395 273.454 172.27 273.826 172.223 274.212C172.175 274.598 172.206 274.989 172.314 275.362C177.284 293.204 187.918 308.948 202.614 320.221C202.905 320.458 203.244 320.628 203.608 320.721C203.972 320.813 204.351 320.826 204.72 320.758C205.133 320.651 205.522 320.468 205.867 320.216L206.416 319.782C206.851 319.239 207.076 318.557 207.048 317.862C207.028 317.472 206.923 317.091 206.74 316.746C206.558 316.401 206.301 316.1 205.99 315.864C192.135 305.205 182.129 290.322 177.485 273.469Z"
          fill="#F4E6C1"/>
    <path d="M204.294 293.043C204.88 292.608 205.272 291.962 205.389 291.242C205.505 290.522 205.335 289.785 204.916 289.188L196.023 276.641C195.828 276.35 195.576 276.103 195.282 275.913C194.988 275.724 194.658 275.597 194.313 275.541C193.968 275.484 193.614 275.499 193.275 275.585C192.936 275.671 192.618 275.825 192.341 276.039C192.029 276.244 191.761 276.51 191.554 276.822C191.347 277.133 191.206 277.483 191.139 277.851C191.071 278.219 191.08 278.596 191.163 278.961C191.246 279.325 191.402 279.669 191.622 279.971L200.516 292.518C200.712 292.823 200.971 293.082 201.276 293.278C201.582 293.473 201.925 293.6 202.284 293.65C202.643 293.7 203.009 293.671 203.356 293.567C203.703 293.462 204.023 293.283 204.294 293.043Z"
          fill="#F4E6C1"/>
    <path d="M233.892 337.617C233.617 337.343 233.291 337.127 232.931 336.981C232.572 336.836 232.187 336.762 231.799 336.767C231.412 336.771 231.029 336.852 230.672 337.006C230.316 337.16 229.995 337.383 229.725 337.662C229.484 337.891 229.293 338.168 229.162 338.474C229.032 338.781 228.967 339.11 228.969 339.443C228.972 339.776 229.043 340.105 229.178 340.409C229.313 340.713 229.509 340.986 229.754 341.212C246.77 358.404 269.12 369.309 293.143 372.139C293.492 372.184 293.847 372.157 294.186 372.061C294.524 371.964 294.84 371.799 295.113 371.576C295.308 371.472 295.483 371.334 295.629 371.167C295.935 370.753 296.129 370.267 296.194 369.756C296.258 369.245 296.19 368.726 295.996 368.249C295.804 367.824 295.502 367.457 295.121 367.186C294.74 366.915 294.295 366.751 293.83 366.709C271.128 364.093 249.992 353.834 233.892 337.617Z"
          fill="#F4E6C1"/>
    <path d="M272.893 351.094C273.387 351.408 273.967 351.557 274.551 351.519C275.135 351.481 275.692 351.259 276.141 350.884C276.436 350.705 276.707 350.49 276.948 350.244C277.141 349.957 277.272 349.634 277.334 349.293C277.396 348.953 277.387 348.604 277.308 348.267C277.228 347.931 277.08 347.614 276.873 347.337C276.665 347.061 276.403 346.83 276.102 346.659L256.751 334.573C256.429 334.372 256.07 334.238 255.695 334.179C255.32 334.12 254.937 334.136 254.569 334.227C254.2 334.319 253.854 334.483 253.55 334.71C253.246 334.938 252.991 335.223 252.799 335.551C252.604 335.834 252.471 336.154 252.406 336.49C252.342 336.827 252.349 337.174 252.426 337.508C252.503 337.843 252.649 338.157 252.854 338.432C253.06 338.707 253.32 338.936 253.619 339.104L272.893 351.094Z"
          fill="#F4E6C1"/>
    <path d="M321.819 364.17C321.585 364.608 321.478 365.102 321.509 365.597C321.539 366.092 321.707 366.569 321.993 366.974C327.794 375.643 330.641 385.954 330.109 396.371C330.084 396.757 330.139 397.144 330.269 397.508C330.399 397.872 330.602 398.206 330.865 398.489C331.129 398.772 331.448 398.998 331.802 399.153C332.156 399.309 332.538 399.391 332.924 399.393C333.58 399.451 334.233 399.254 334.747 398.842C335.027 398.613 335.255 398.325 335.414 398C335.573 397.674 335.66 397.318 335.668 396.956C336.257 385.183 333.031 373.534 326.47 363.741C326.241 363.367 325.913 363.063 325.523 362.863C325.133 362.662 324.695 362.574 324.257 362.606C323.749 362.628 323.255 362.785 322.827 363.06C322.399 363.334 322.051 363.718 321.819 364.17Z"
          fill="#F4E6C1"/>
    <path d="M402.175 313.568C396.98 314.369 391.676 314.105 386.586 312.79C386.038 312.618 385.449 312.622 384.903 312.8C384.357 312.979 383.881 313.323 383.54 313.786C383.203 314.251 383.016 314.807 383.002 315.381C382.988 315.955 383.148 316.519 383.461 317L384.769 319.115C385.014 319.546 385.386 319.889 385.835 320.098C386.283 320.308 386.785 320.373 387.272 320.284C387.669 320.178 388.039 319.992 388.361 319.736C388.683 319.481 388.949 319.163 389.143 318.801C393.683 319.565 398.315 319.616 402.871 318.954C403.343 318.907 403.792 318.726 404.164 318.431C404.536 318.136 404.815 317.741 404.968 317.291C405.164 316.82 405.228 316.304 405.152 315.8C405.076 315.295 404.863 314.821 404.538 314.428C404.244 314.102 403.875 313.853 403.464 313.704C403.052 313.554 402.609 313.507 402.175 313.568Z"
          fill="#F4E6C1"/>
    <path d="M391.94 303.24C391.173 303.151 390.403 303.371 389.797 303.85C389.192 304.33 388.803 305.03 388.714 305.797C388.625 306.564 388.845 307.335 389.324 307.94C389.804 308.545 390.504 308.935 391.271 309.024L406.425 310.778C406.775 310.822 407.13 310.796 407.468 310.699C407.807 310.602 408.122 310.437 408.395 310.214C408.682 309.979 408.918 309.69 409.092 309.363C409.266 309.036 409.373 308.678 409.407 308.309C409.458 307.954 409.436 307.593 409.343 307.247C409.25 306.901 409.087 306.578 408.864 306.297C408.642 306.016 408.364 305.783 408.048 305.613C407.733 305.443 407.386 305.34 407.029 305.308L391.94 303.24Z"
          fill="#F4E6C1"/>
    <path d="M391.217 293.78C390.925 294.198 390.746 294.685 390.698 295.193C390.649 295.701 390.733 296.212 390.94 296.679C391.121 297.112 391.42 297.486 391.803 297.759C392.186 298.031 392.637 298.19 393.106 298.219L414.18 300.482C414.523 300.533 414.872 300.512 415.206 300.419C415.54 300.326 415.851 300.164 416.118 299.944C416.625 299.473 416.939 298.83 417.001 298.141C417.09 297.474 416.928 296.797 416.546 296.242C416.321 295.933 416.033 295.676 415.702 295.486C415.37 295.296 415.003 295.178 414.622 295.14L393.549 292.877C393.115 292.819 392.674 292.871 392.267 293.029C391.859 293.187 391.498 293.445 391.217 293.78Z"
          fill="#F4E6C1"/>
    <path d="M198.316 163.6C197.846 163.755 197.427 164.036 197.104 164.412C196.782 164.788 196.568 165.245 196.487 165.733C195.538 170.425 195.064 175.201 195.071 179.989C195.072 180.496 195.206 180.995 195.458 181.435C195.711 181.876 196.074 182.243 196.511 182.501C196.949 182.759 197.446 182.898 197.953 182.905C198.461 182.912 198.962 182.787 199.406 182.542L199.761 182.26C200.043 182.021 200.268 181.722 200.418 181.384C200.569 181.046 200.642 180.679 200.632 180.31C200.611 175.639 201.072 170.978 202.007 166.401C202.096 165.97 202.075 165.524 201.944 165.104C201.813 164.683 201.577 164.303 201.259 163.999C200.84 163.694 200.352 163.498 199.838 163.428C199.324 163.359 198.801 163.418 198.316 163.6Z"
          fill="#F4E6C1"/>
    <path d="M214.285 157.57C214.635 157.277 214.898 156.893 215.046 156.461C215.194 156.029 215.222 155.565 215.126 155.118C213.625 147.318 211.472 139.657 208.691 132.217C208.573 131.886 208.389 131.583 208.149 131.327C207.909 131.071 207.619 130.867 207.297 130.728C206.975 130.589 206.627 130.518 206.276 130.519C205.925 130.52 205.578 130.594 205.257 130.735C204.905 130.851 204.58 131.038 204.303 131.284C204.025 131.53 203.801 131.831 203.644 132.167C203.487 132.503 203.401 132.867 203.39 133.238C203.38 133.609 203.445 133.978 203.582 134.322C206.203 141.309 208.204 148.513 209.56 155.851C209.623 156.333 209.815 156.789 210.117 157.17C210.419 157.551 210.819 157.842 211.274 158.013C211.74 158.168 212.238 158.206 212.722 158.125C213.207 158.043 213.664 157.843 214.054 157.544L214.285 157.57Z"
          fill="#F4E6C1"/>
</svg>
