<svg width="440" height="414" viewBox="0 0 440 414" fill="none" xmlns="http://www.w3.org/2000/svg">
    <path d="M403.635 353.187C397.076 353.183 391.056 358.503 384.316 357.816C372.826 356.735 370.751 345.94 363.924 338.952C360.895 336.37 357.621 334.141 354.157 332.304C349.861 329.517 346.38 325.022 341.948 322.529C332.903 317.639 314.123 328.178 308.381 321.63C306.347 319.333 302.681 322.359 304.761 324.705C309.282 329.591 313.806 328.178 320.095 327.253C334.03 325.161 344.341 329.905 355.375 338.556C364.87 345.985 367.397 358.099 379.247 361.72C384.629 363.384 408.383 358.123 409.601 363.398C410.323 366.476 414.893 365.843 414.125 362.766C413.821 360.034 412.57 357.528 410.624 355.751C408.678 353.974 406.181 353.058 403.635 353.187Z"
          fill="#F4E6C1"/>
    <path d="M437.983 320.823C422.834 309.581 423.341 293.952 402.849 291.498C391.902 290.222 382.043 285.674 371.187 283.47C360.19 281.364 348.936 281.357 337.937 283.451L337.62 283.451C335.165 281.239 332.582 279.199 329.888 277.341C327.401 275.679 324.594 279.634 327.126 281.296C334.949 286.575 340.689 295.32 348.875 299.477C338.742 298.689 328.516 301.711 318.024 297.017C316.896 296.504 315.626 296.497 314.494 296.995C313.361 297.494 312.458 298.458 311.983 299.675C311.508 300.892 311.501 302.263 311.963 303.486C312.424 304.709 313.317 305.684 314.445 306.197C324.575 310.745 335.388 308.993 345.567 309.878C345.801 310.529 346.21 311.091 346.742 311.49C348.449 312.73 350.286 313.747 352.214 314.521C347.402 313.159 342.478 312.305 337.513 311.973C331.496 311.628 313.896 315.769 311.186 308.734C310.814 307.858 310.141 307.172 309.308 306.822C308.476 306.473 307.551 306.486 306.727 306.86C305.904 307.234 305.248 307.939 304.898 308.826C304.548 309.713 304.531 310.712 304.851 311.612C305.968 314.436 307.879 316.809 310.313 318.397C312.747 319.984 315.582 320.706 318.417 320.46C330.994 320.468 341.716 318.764 354.109 322.825C358.089 324.097 360.672 317.945 357.28 316.234C359.722 316.821 362.255 317.262 364.834 317.606C370.177 321.616 374.998 326.382 379.166 331.778L380.161 333.048C373.401 332.685 366.788 330.783 360.757 327.469C356.822 325.122 354.24 332.056 358.084 334.354C367.128 339.585 377.126 339.933 387.214 340.28C388.347 341.008 389.544 341.614 390.786 342.089C391.663 342.45 392.621 342.507 393.529 342.254C394.437 342.001 395.249 341.45 395.854 340.676C404.8 340.653 413.512 343.76 420.685 349.531C424.121 352.61 428.287 346.702 424.895 343.623C416.214 335.902 406.127 334.431 395.767 333.839C395.353 333.408 394.86 333.075 394.32 332.861C389.255 330.855 385.639 324.993 381.932 320.204C393.198 321.836 404.001 326.092 413.592 332.677C417.255 335.365 421.466 329.458 417.803 326.769C409.317 320.645 399.809 316.36 389.807 314.152C384.527 313.106 379.196 312.385 373.839 311.994C369.765 308.565 365.423 305.523 360.861 302.902C360.109 302.519 359.339 302.176 358.555 301.875C378.912 302.669 398.462 289.591 413.695 311.676C415.458 314.216 419.079 311.19 417.316 308.601C414.24 304.084 410.33 300.307 405.832 297.507C413.245 299.262 419.733 304.066 423.919 310.9C426.875 316.174 430.743 320.786 435.311 324.484C437.663 326.586 440.47 322.631 437.983 320.823ZM359.508 297.139C353.265 295.661 347.465 292.518 342.639 287.996C351.939 286.584 361.385 286.738 370.641 288.452C375.965 289.777 381.22 291.411 386.381 293.345C377.65 294.072 368.283 298.951 359.508 297.139Z"
          fill="#F4E6C1"/>
    <path d="M182.898 226.024C167.24 217.38 154.563 203.541 146.73 186.541C142.305 175.787 136.05 166.026 128.29 157.763C126.074 155.613 123.312 159.567 125.483 161.669C137.464 173.349 141.752 190.054 150.61 204.077C158.339 216.242 169.418 223.623 181.086 230.614C183.709 232.179 185.611 227.589 182.898 226.024Z"
          fill="#F4E6C1"/>
    <path d="M125.379 258.91C130.101 258.869 134.783 257.963 139.224 256.232C141.848 255.208 140.177 250.909 137.507 251.933C132.901 253.722 128.007 254.483 123.12 254.171C122.036 251.875 120.997 249.286 120.048 246.99C123.467 247.294 126.908 247.083 130.273 246.361C132.987 245.728 132.402 241.039 129.687 241.477C125.959 242.359 122.117 242.538 118.332 242.007L117.745 240.2L117.023 237.709C118.299 237.749 119.576 237.619 120.823 237.32C121.387 237.224 121.896 236.896 122.242 236.405C122.587 235.913 122.744 235.297 122.679 234.684C122.646 234.375 122.556 234.077 122.415 233.806C122.274 233.535 122.084 233.297 121.857 233.106C121.629 232.915 121.369 232.774 121.091 232.693C120.813 232.611 120.523 232.59 120.238 232.631C118.756 233.008 117.226 233.106 115.714 232.922C115.262 231.163 114.766 229.453 114.359 227.695C116.765 227.46 119.127 226.853 121.372 225.892C123.997 224.819 122.326 220.471 119.701 221.593C117.609 222.446 115.415 222.971 113.186 223.152L111.787 217.388L115.949 217.635C118.708 217.636 119.299 213.143 116.539 212.995C114.549 212.994 112.604 212.749 110.613 212.601C107.463 196.963 102.501 181.814 95.8466 167.513C93.7228 163.312 87.3425 166.19 89.5115 170.391C102.751 196.528 104.408 226.615 115.159 253.727C124.916 278.153 142.82 296.185 161.539 312.851C164.975 315.881 169.141 309.973 165.704 306.894C149.382 292.575 135.185 277.768 125.379 258.91Z"
          fill="#F4E6C1"/>
    <path d="M284.278 223.348C284.453 223.801 284.709 224.211 285.031 224.557C285.353 224.902 285.735 225.176 286.155 225.362C286.575 225.548 287.025 225.644 287.479 225.642C287.933 225.641 288.382 225.543 288.801 225.354C289.22 225.165 289.6 224.888 289.92 224.541C290.24 224.193 290.494 223.781 290.666 223.327C290.839 222.874 290.927 222.388 290.926 221.898C290.924 221.408 290.833 220.923 290.658 220.471C281.507 196.648 266.775 175.805 247.908 159.988C229.041 144.17 206.688 133.922 183.043 130.249C182.595 130.185 182.139 130.217 181.702 130.342C181.264 130.468 180.854 130.686 180.495 130.983C180.136 131.279 179.834 131.65 179.607 132.073C179.38 132.495 179.233 132.962 179.173 133.446C179.114 133.93 179.143 134.423 179.259 134.895C179.376 135.367 179.577 135.809 179.852 136.197C180.127 136.585 180.47 136.911 180.862 137.155C181.253 137.4 181.686 137.559 182.134 137.624C204.589 141.108 225.816 150.845 243.726 165.876C261.637 180.907 275.612 200.714 284.278 223.348Z"
          fill="#F4E6C1"/>
    <path d="M120.522 137.931C120.519 142.815 127.35 141.647 127.353 136.909C127.349 134.159 126.843 131.437 125.865 128.899C127.448 128.899 128.987 128.461 130.389 128.217C130.937 128.107 131.425 127.773 131.752 127.285C132.078 126.797 132.218 126.193 132.143 125.596C132.068 125 131.783 124.458 131.347 124.082C130.912 123.706 130.359 123.525 129.804 123.577L123.47 124.453C121.807 121.867 119.83 119.533 117.593 117.514C118.975 117.161 120.383 116.933 121.801 116.833C124.605 116.834 124.02 111.95 121.215 111.948C118.545 112.174 115.922 112.831 113.433 113.898C111.579 112.627 109.634 111.404 107.645 110.28L113.482 107.939C116.106 106.866 114.435 102.518 111.81 103.591L103.123 107.103C102.846 107.195 102.597 107.363 102.399 107.591C95.4077 104.424 88.1533 101.983 80.7335 100.301C76.2103 99.2726 75.4821 106.647 79.7792 107.675C93.1679 110.955 120.442 119.86 120.522 137.931Z"
          fill="#F4E6C1"/>
    <path d="M385.703 380.965C374.846 379.445 363.311 377.924 354.449 370.349C348.345 365.168 343.735 358.426 338.174 352.659C337.578 351.932 336.911 351.277 336.184 350.705C336.184 350.705 336.184 350.705 335.958 350.704C335.732 350.704 334.873 349.629 334.285 349.14C348.489 351.64 360.701 355.359 371.731 368.698C374.715 372.216 380.191 367.678 377.162 364.11C369.46 354.462 359.376 347.376 348.086 343.678C332.482 338.785 312.438 344 302.224 326.948C299.829 322.942 294.397 327.53 296.793 331.536C302.894 341.747 312.301 345.758 323.157 347.473C325.645 347.866 328.043 348.258 330.44 348.601C330.278 348.755 330.141 348.936 330.033 349.138C328.282 349.18 326.539 349.409 324.83 349.819C310.216 352.936 301.035 348.731 294.032 334.074C293.871 333.73 293.634 333.435 293.342 333.213C293.051 332.991 292.713 332.851 292.358 332.804C293.585 324.599 285.626 319.417 290.652 310.971C295.679 302.525 302.733 307.266 308.753 301.653C310.836 299.536 312.467 296.953 313.531 294.086C314.595 291.219 315.067 288.136 314.915 285.051C316.361 285.379 317.859 285.319 319.279 284.877C320.699 284.435 321.997 283.625 323.06 282.516C324.825 280.857 323.514 279 324.465 277.633C328.766 271.14 330.392 275.683 334.962 273.488C338.27 277.137 342.39 279.81 346.927 281.249C351.465 282.688 356.269 282.846 360.879 281.708C371.076 279.136 381.651 278.839 391.957 280.836C402.263 282.832 412.082 287.08 420.814 293.318C425.788 296.74 431.402 288.831 426.383 285.409C415.341 277.348 402.838 271.914 389.703 269.466L390.744 269.466C402.507 268.301 412.69 261.03 424.407 260.304C427.392 260.306 426.762 255.421 423.821 255.42C415.09 255.952 408.031 259.904 399.705 262.439C391.855 264.962 383.535 265.26 375.547 263.304C399.893 250.033 408.46 222.2 408.929 193.482C409.538 157.585 402.504 117.63 377.909 91.7789C349.923 62.4586 309.127 47.1968 270.585 46.1C251.475 45.5539 232.42 48.5663 214.257 55.005C193.308 62.4653 174.661 75.9343 153.667 83.0039C103.442 99.8245 81.304 50.1414 56.2175 14.1805C55.8515 13.5978 55.3598 13.1197 54.7847 12.7876C54.2096 12.4555 53.5684 12.2792 52.9162 12.2738C52.7899 11.4468 52.609 10.6306 52.3748 9.83147C47.4072 -5.0676 27.2278 0.0489073 17.9961 5.41592C11.7664 8.77442 6.76781 14.3031 3.80854 21.1079C0.849272 27.9128 0.102345 35.596 1.68842 42.9155C1.0022 43.5913 0.52522 44.4787 0.322316 45.4572C0.119411 46.4357 0.200417 47.4579 0.554275 48.3849C10.0851 73.3477 30.2538 86.5952 46.8906 105.408C56.7317 116.164 64.2916 129.099 69.0479 143.319C73.8042 157.539 75.6433 172.705 74.4382 187.768C72.3415 214.873 63.7762 241.047 64.4841 268.446C65.4299 293.377 72.3186 317.622 84.4839 338.837C130.037 419.791 236.07 429.865 297.588 364.308C312.607 364.073 322.273 389.915 330.049 399.639C338.592 410.34 352.662 409.908 364.332 413.041C368.629 414.166 369.492 406.792 365.241 405.618C352.44 402.191 340.045 402.575 332.181 389.188C328.327 382.101 323.699 375.539 318.394 369.644C313.137 363.075 305.926 358.685 297.999 357.227C297.645 356.689 297.195 356.235 296.674 355.89C296.153 355.546 295.573 355.319 294.969 355.223C294.837 354.532 294.493 353.91 293.992 353.458C293.492 353.005 292.864 352.749 292.211 352.73C286.421 352.238 285.925 349.064 287.104 345.059C287.407 344.616 287.595 344.094 287.647 343.546C288.055 342.374 288.599 341.104 289.142 339.884C289.596 338.955 290.126 338.072 290.727 337.247C296.602 348.728 306.051 357.915 318.945 356.458C321.961 355.678 324.978 354.849 327.994 353.972C330.448 354.282 332.759 355.379 334.629 357.121C336.498 358.863 337.841 361.171 338.484 363.746C340.111 366.238 341.285 369.609 342.777 372.198C348.192 381.162 355.255 388.83 363.528 394.725C365.97 396.534 368.777 392.579 366.29 390.771C358.345 385.116 351.572 377.745 346.397 369.123L345.946 368.195C348.778 371.625 352.034 374.618 355.621 377.089C364.789 382.108 374.808 385.055 385.067 385.751C385.579 385.695 386.06 385.456 386.432 385.07C386.803 384.685 387.045 384.177 387.118 383.627C387.192 383.076 387.092 382.515 386.835 382.033C386.579 381.55 386.18 381.175 385.703 380.965ZM380.837 269.265C368.079 270.137 353.148 274.67 343.652 267.583C346.548 266.315 347.723 267.048 352.699 267.979C356.832 268.073 360.911 266.962 364.508 264.763C369.728 267.085 375.225 268.601 380.837 269.265ZM79.892 66.7461C80.9317 68.0654 82.0167 69.3359 83.1017 70.6063C81.7898 70.6056 80.478 70.3118 79.1662 70.1156L79.892 66.7461ZM78.0777 74.999C80.3847 75.2934 82.6012 75.5388 85.0439 75.8821C85.4187 75.957 85.8057 75.9141 86.1586 75.7585C86.5116 75.6028 86.8157 75.341 87.0349 75.0042C88.979 77.0078 90.9683 78.9137 93.003 80.6731C87.7558 79.8886 82.4632 79.4948 77.2158 78.9545L78.0777 74.999ZM68.0918 54.5781L69.7204 54.5791C70.1678 54.6808 70.63 54.681 71.0776 54.5798L73.202 57.6091L67.5474 57.3128L68.0918 54.5781ZM76.411 62.6415L74.9141 69.4782C71.4763 68.9878 67.9932 68.5463 64.5553 68.1536C65.2803 66.1515 66.0053 64.1496 66.5493 62.0986C69.7611 62.3935 73.0182 62.5908 76.3205 62.7392L76.411 62.6415ZM7.56966 42.4305C7.56966 42.4305 7.56966 42.4306 7.56991 41.991C7.60655 41.3743 7.42954 40.7649 7.07328 40.2813C8.82685 35.4111 11.0111 30.7347 13.5958 26.3169C15.0901 23.7781 11.6536 20.8945 10.114 23.4333C8.47241 26.1135 6.96082 28.8839 5.58537 31.7334C5.77052 28.3819 6.57535 25.1044 7.9523 22.0939C9.32926 19.0834 11.2505 16.4008 13.6028 14.2045C18.4431 9.76005 24.226 6.67631 30.4368 5.22775C33.2567 4.59331 36.1676 4.595 38.9869 5.23272C45.5462 5.67611 47.4896 8.90069 44.7717 15.0041C45.164 16.0195 45.3147 17.1248 45.21 18.2192C45.1054 19.3135 44.7488 20.3623 44.1726 21.2699C43.5965 22.1774 42.8191 22.9149 41.9114 23.4151C41.0038 23.9154 39.9946 24.1624 38.9759 24.1338C35.9444 25.0111 32.8676 25.8886 29.9267 26.6683C27.613 27.4154 25.3584 28.3613 23.1845 29.497L29.4338 18.5606C30.8829 16.0217 27.4464 13.1381 25.952 15.7257L12.3667 39.4053C10.6466 41.2113 8.79077 42.9686 7.84076 42.968C7.70522 42.6749 7.56959 42.626 7.47917 42.5282L7.56966 42.4305ZM21.4445 65.4423C22.4697 63.1202 23.2452 60.679 23.7559 58.1664C24.3457 55.2364 20.0484 54.5989 19.2324 57.5289C18.9353 58.8465 18.5412 60.1365 18.054 61.3866C15.0606 57.2486 12.485 52.7774 10.3712 48.0489C13.3519 46.3082 15.8393 43.727 17.5685 40.5806C22.2002 45.6452 26.3356 51.2122 29.9089 57.1933C29.6926 56.8285 29.3903 56.5324 29.033 56.3353C28.6757 56.1383 28.2762 56.0474 27.8756 56.072C27.475 56.0966 27.0877 56.2359 26.7534 56.4754C26.419 56.715 26.1497 57.0462 25.9731 57.4351L21.9416 66.3706L21.4445 65.4423ZM286.677 301.298C284.184 305.583 282.633 310.427 282.145 315.459C276.638 321.288 269.551 325.066 261.917 326.241C266.364 323.95 270.555 321.117 274.408 317.799C276.58 315.945 273.913 312.182 271.741 314.086C264.557 320.318 256.129 324.661 247.123 326.77C246.756 326.858 246.414 327.043 246.128 327.307L245.811 327.306C248.029 325.989 250.337 324.623 252.328 323.159C254.319 321.695 252.014 317.835 249.616 319.445C247.203 321.115 244.711 322.646 242.149 324.032C240.505 325.167 238.702 326.007 236.809 326.52C236.809 326.52 236.447 326.52 236.266 326.519C235.821 326.558 235.376 326.438 235 326.177C234.668 325.883 234.253 325.722 233.824 325.722C233.395 325.722 232.979 325.882 232.647 326.175C231.109 325.93 229.572 325.685 228.124 325.391C232.378 323.294 236.631 321.196 240.885 319.05C243.419 317.781 241.748 313.433 239.168 314.702L220.841 323.873L217.766 323.139C222.355 321.724 226.707 319.534 230.662 316.651C232.971 314.942 230.304 311.278 227.95 312.937C223.625 316.102 218.767 318.323 213.651 319.473C213.183 319.571 212.758 319.836 212.446 320.226C212.134 320.615 211.953 321.107 211.931 321.621C209.036 320.838 206.277 320.055 203.789 319.272C201.302 318.489 199.263 322.981 202.022 323.862C224.366 330.615 261.637 340.258 282.186 322.444C282.231 323.392 282.321 324.338 282.456 325.276C283.671 335.924 280.097 336.117 275.976 343.246L275.387 344.418C271.02 347.045 266.483 349.327 261.812 351.247C263.076 349.708 264.24 348.077 265.298 346.365C266.838 343.827 263.356 340.992 261.816 343.531C259.523 347.345 256.681 350.74 253.396 353.587C253.149 353.816 252.948 354.099 252.807 354.417C250.047 355.245 247.287 355.976 244.528 356.561C245.597 354.872 246.745 353.242 247.968 351.679C249.87 349.384 246.388 346.55 244.532 348.795C242.344 351.477 240.431 354.407 238.827 357.534C234.329 358.215 229.796 358.587 225.255 358.65L229.781 354.745C230.237 354.363 230.534 353.802 230.606 353.183C230.679 352.565 230.521 351.941 230.167 351.449C229.814 350.956 229.293 350.636 228.721 350.558C228.148 350.479 227.57 350.65 227.114 351.032C224.172 353.472 221.275 355.912 218.333 358.45C215.031 358.449 211.729 357.86 208.472 357.321L214.038 353.515C216.392 351.905 213.68 348.191 211.326 349.802C208.973 351.412 205.352 353.95 202.275 355.999C198.725 355.189 195.222 354.16 191.782 352.916L194.769 350.476C197.032 348.67 194.365 344.957 192.102 346.811L186.806 351.057C183.231 349.63 179.728 347.997 176.314 346.167C172.334 344.016 169.706 351.047 173.641 353.052C189.271 361.609 206.548 366.074 224.074 366.084C241.6 366.094 258.882 361.65 274.523 353.111C274.697 354.006 274.97 354.875 275.335 355.7C259.918 368.219 242.056 376.772 223.112 380.705C204.169 384.638 184.643 383.848 166.026 378.396C163.176 377.564 162.585 382.496 165.39 383.279C184.762 388.846 205.059 389.545 224.722 385.323C244.385 381.101 262.89 372.071 278.817 358.925C281.421 359.701 284.133 359.968 286.824 359.711C286.301 360.048 285.871 360.528 285.577 361.102C285.282 361.677 285.134 362.326 285.148 362.982C264.137 382.355 237.981 394.043 210.436 396.37C182.89 398.697 155.371 391.542 131.827 375.934C135.744 376.916 139.719 377.604 143.724 377.992C146.483 378.238 147.119 373.549 144.315 373.108C135.95 372.406 127.746 370.241 120.025 366.696C117.719 364.741 115.504 362.689 113.333 360.538C118.604 362.378 124.083 363.433 129.617 363.673C132.377 363.675 132.968 359.133 130.163 358.79C121.393 358.413 112.821 355.868 105.105 351.352C101.87 347.392 98.8516 343.231 96.0649 338.892C102.38 343.527 109.259 347.196 116.506 349.795C119.175 350.725 121.032 346.428 118.183 345.449C107.756 341.829 98.1658 335.845 90.0545 327.9C89.9211 327.774 89.768 327.674 89.6023 327.606C88.7889 326.043 87.9756 324.431 87.2075 322.721C92.2338 326.61 97.7659 329.675 103.624 331.815C106.292 332.744 108.15 328.398 105.3 327.469C96.9732 324.442 89.3844 319.429 83.0966 312.804C82.0125 309.971 80.9737 307.04 80.0706 304.06C71.8526 277.633 73.4509 251.993 78.1262 225.036L79.7602 215.562C81.697 240.572 86.8597 265.167 95.0988 288.635C94.8454 288.975 94.6808 289.381 94.622 289.812C94.5632 290.244 94.6125 290.684 94.7646 291.088C94.9167 291.492 95.1661 291.844 95.487 292.108C95.8079 292.373 96.1886 292.54 96.5894 292.592C99.3362 299.559 102.49 306.331 106.032 312.866C114.483 328.81 125.667 342.872 138.987 354.302C138.917 354.595 138.91 354.903 138.969 355.2C139.028 355.497 139.15 355.775 139.325 356.012C139.501 356.249 139.725 356.439 139.98 356.566C140.235 356.693 140.514 356.754 140.795 356.745C141.248 356.745 141.7 356.745 142.153 356.745C147.454 360.981 153.047 364.772 158.884 368.086C161.552 369.553 163.41 364.963 160.651 363.496C156.754 361.328 152.979 358.912 149.346 356.261C153.587 355.647 157.729 354.4 161.653 352.557C162.15 352.289 162.533 351.827 162.724 351.264C162.915 350.701 162.898 350.08 162.679 349.53C162.459 348.98 162.052 348.541 161.542 348.305C161.032 348.068 160.457 348.051 159.936 348.258C154.88 350.648 149.438 351.939 143.92 352.058C141.614 350.201 139.398 348.246 137.228 346.242C141.676 345.604 145.965 344.031 149.852 341.61C152.25 340.097 150.579 335.749 148.135 337.262C143.446 340.325 138.095 342.006 132.616 342.137C129.632 339.036 126.795 335.774 124.117 332.364C126.018 333.332 128.133 333.704 130.221 333.438C132.308 333.172 134.285 332.277 135.925 330.857C138.052 328.953 135.385 325.24 133.213 327.143C132.132 328.143 130.791 328.759 129.375 328.906C127.958 329.054 126.533 328.727 125.295 327.969C124.992 327.783 124.655 327.67 124.307 327.639C123.959 327.608 123.61 327.659 123.282 327.79C122.955 327.92 122.657 328.125 122.411 328.392C122.165 328.659 121.976 328.98 121.856 329.334C120.636 327.673 119.37 326.061 118.195 324.448C122.612 324.536 127.008 323.778 131.18 322.209C133.804 321.185 132.088 316.886 129.463 317.91C125.72 319.344 121.76 320.004 117.79 319.857C117.42 319.842 117.051 319.929 116.719 320.108C116.387 320.287 116.102 320.553 115.89 320.882C114.489 318.634 113.042 316.436 111.687 314.09C114.582 313.848 117.477 313.654 120.373 313.412C123.268 313.169 122.592 308.529 119.788 308.527L109.337 309.401C108.252 307.349 107.123 305.345 106.129 303.245C108.029 303.002 109.974 302.71 111.874 302.418C112.422 302.307 112.91 301.974 113.237 301.486C113.563 300.998 113.703 300.393 113.628 299.797C113.553 299.2 113.268 298.658 112.833 298.282C112.397 297.906 111.844 297.726 111.289 297.778C109.163 298.07 107.036 298.361 104.91 298.702C104.65 298.689 104.39 298.722 104.141 298.799C103.011 296.308 101.836 293.914 100.843 291.178C102.26 290.874 103.697 290.695 105.141 290.643C107.9 290.645 107.315 285.761 104.555 285.759C102.754 285.839 100.966 286.116 99.2168 286.586C89.0951 257.437 83.4441 226.701 82.4861 195.588C84.3869 182.285 84.2266 168.735 82.0118 155.49C77.687 134.21 67.9543 114.653 53.9063 99.0143C46.1304 90.1209 37.3586 82.5456 29.356 74.58C29.8446 74.5809 30.3148 74.3784 30.6688 74.0148C31.0229 73.6512 31.2336 73.1545 31.2571 72.6276C31.4309 70.4129 32.1165 68.2805 33.2512 66.4259C34.7908 63.8871 31.3091 61.0036 29.7695 63.5424C28.2224 66.0803 27.2448 68.9729 26.9146 71.9901L25.1967 70.0842L30.0887 59.3424C30.2127 59.0687 30.2773 58.7679 30.2775 58.4633C30.2777 58.1586 30.2134 57.8579 30.0897 57.5841C38.3606 70.971 45.002 85.7247 54.6758 98.1357C66.5338 113.12 80.7359 125.741 96.6356 135.425C99.168 136.989 100.935 132.399 98.4026 130.835C78.9454 118.907 62.2374 102.385 49.5277 82.5038C39.7199 67.0647 33.0344 50.3086 20.6468 36.9681C26.3044 32.0874 43.2702 29.8017 49.9246 22.3331C53.0434 26.9259 56.1168 31.7141 59.2355 36.5999C58.3297 36.4698 57.4132 36.7335 56.6875 37.333C56.3281 37.6299 56.0265 38.0003 55.7997 38.4229C55.5729 38.8457 55.4254 39.3124 55.3657 39.7966C55.2452 40.7745 55.4894 41.764 56.0446 42.5474C56.5999 43.3309 57.4206 43.844 58.3264 43.9741L65.066 45.5898L66.196 47.3486L56.6962 46.8548C52.1723 46.8522 51.3086 54.0311 55.7419 54.2779C58.4109 54.2794 61.0346 54.5251 63.7036 54.6732C63.7031 55.5523 63.3407 56.3824 63.1593 57.2614C61.8021 57.2606 60.4902 57.2599 59.1784 57.0149C56.2379 57.0132 55.5565 61.8968 58.5422 61.8985C59.7184 61.8992 60.8946 61.8999 62.0708 61.9006C61.5268 63.8539 60.8472 65.7095 60.1223 67.6138C58.9461 67.6131 57.7701 67.2704 56.5939 67.1721C53.6536 66.8285 53.0174 71.761 55.9577 72.0557C61.9289 72.6941 67.8546 73.5767 73.8256 74.3616L72.9637 78.4149C67.7444 77.876 62.5996 76.6931 57.6299 74.8895C53.4689 73.2753 50.7958 80.1602 54.9568 81.7744C60.3538 83.7222 65.938 85.0035 71.6024 85.5936C71.0125 88.5725 70.4228 91.5025 69.9234 94.4326C69.4241 97.3627 73.7214 98.049 74.4469 95.0702L76.1712 86.0847C84.5477 86.5861 92.8702 87.8489 101.05 89.8598C101.637 90.0809 102.278 90.0699 102.858 89.8288C103.438 89.5876 103.92 89.1319 104.218 88.543C108.803 91.2715 113.699 93.3429 118.781 94.7052C120.464 95.1338 122.172 95.4448 123.892 95.6361C123.484 97.9802 124.839 100.521 127.554 100.083C167.205 91.9354 208.234 97.9423 244.44 117.196C248.465 119.347 251.093 112.316 247.114 110.311C245.621 109.529 244.083 108.942 242.591 108.159C244.802 106.08 247.464 104.637 250.329 103.964C253.044 103.33 252.458 98.6901 249.744 99.0793C245.383 100.038 241.401 102.423 238.34 105.91C235.988 104.834 233.817 103.71 231.284 102.732C232.326 100.857 233.92 99.413 235.811 98.6316C238.435 97.5587 236.719 93.2109 234.094 94.2838C231.041 95.5847 228.51 98.0039 226.943 101.117C223.957 99.9435 220.927 98.7207 217.897 97.7421C219.947 95.7216 222.21 93.9688 224.64 92.5201C227.084 91.1052 225.413 86.7574 222.924 88.1723C219.233 90.3597 215.85 93.1042 212.876 96.3228C210.388 95.5888 207.901 94.8547 205.368 94.2184C206.775 92.8917 208.382 91.8352 210.12 91.0953C210.384 90.9736 210.624 90.7969 210.825 90.5752C211.026 90.3535 211.185 90.0912 211.292 89.8033C211.399 89.5153 211.453 89.2075 211.45 88.8972C211.447 88.5868 211.388 88.2802 211.275 87.9947C211.162 87.7092 210.999 87.4504 210.793 87.2333C210.588 87.0161 210.345 86.8447 210.078 86.7289C209.812 86.6131 209.526 86.5552 209.239 86.5583C208.952 86.5616 208.668 86.6259 208.403 86.7476C205.241 88.1014 202.418 90.2416 200.166 92.9943C198.583 92.6515 196.954 92.4064 195.371 92.1124C196.537 90.8434 197.92 89.8321 199.444 89.1355C199.978 88.8962 200.403 88.4377 200.624 87.8608C200.844 87.2839 200.844 86.6358 200.622 86.0593C200.401 85.4827 199.976 85.0249 199.442 84.7864C198.907 84.548 198.307 84.5485 197.773 84.7879C194.777 86.0963 192.187 88.2966 190.305 91.1327C181.57 89.767 172.758 89.0602 163.932 89.0172C169.86 86.5787 175.652 83.7492 181.309 80.8221C183.481 79.7 185.834 78.5781 187.915 77.5049C222.045 72.6274 256.617 81.8974 284.666 103.446C287.107 105.304 289.914 101.349 287.473 99.492C262.156 80.0742 231.624 70.1882 200.586 71.3585C205.971 68.9196 211.401 66.4807 216.876 64.628C244.02 62.4948 280.976 68.6213 300.734 89.0968C303.898 92.4686 308.064 86.5124 304.944 83.1895C289.934 67.5031 265.917 59.6748 242.982 57.3172C246.964 56.6358 251.036 56.052 255.198 55.7614C276.086 54.5869 296.996 57.5453 316.898 64.4908C315.948 64.4902 314.953 64.4896 314.003 64.4891C311.198 64.4875 311.783 69.3718 314.543 69.1293C319.223 68.7171 323.922 68.6219 328.612 68.8444C330.964 69.8714 333.135 70.8982 335.577 72.0718C332.184 72.0698 328.746 72.0678 325.308 72.0658C321.87 72.0638 323.134 76.9485 325.893 76.9501C332.272 76.9538 338.651 76.9576 344.984 77.5962C345.345 77.5964 345.707 78.0362 346.069 78.2807C340.716 77.7401 335.332 77.639 329.964 77.9783C327.159 77.9766 327.745 82.861 330.504 82.8626C338.71 82.2934 346.949 82.8562 355.022 84.5374C355.972 85.2217 356.831 86.0035 357.781 86.7367C352.128 86.1891 346.435 86.3497 340.816 87.2153C340.268 87.3256 339.78 87.6594 339.454 88.1474C339.127 88.6353 338.987 89.24 339.062 89.8364C339.138 90.4328 339.422 90.9752 339.858 91.3511C340.293 91.7269 340.846 91.9075 341.401 91.8555C349.054 90.6931 356.83 90.879 364.428 92.406C367.252 95.0108 369.938 97.7844 372.475 100.714C366.09 99.1714 359.625 98.0423 353.115 97.3323C350.31 97.0376 349.72 101.677 352.524 101.972C360.921 102.918 369.238 104.556 377.403 106.87C380.065 110.556 382.482 114.442 384.634 118.498C375.342 114.578 365.703 111.693 355.867 109.886C355.312 109.833 354.759 110.013 354.323 110.388C353.887 110.764 353.602 111.306 353.526 111.902C353.45 112.498 353.589 113.103 353.915 113.592C354.241 114.08 354.728 114.414 355.276 114.525C366.52 116.575 377.487 120.108 387.933 125.045C389.352 128.216 390.589 131.479 391.636 134.815C403.015 171.891 408.678 235.435 369.535 255.29C368.897 254.418 368.003 253.807 366.999 253.558C365.996 253.308 364.944 253.436 364.017 253.92C366.136 249.205 367.879 244.304 369.228 239.271C374.003 240.66 379.058 240.424 383.705 238.596C386.374 237.62 384.658 233.272 382.033 234.297C378.318 235.704 374.294 235.855 370.497 234.729C371.389 230.773 372.056 226.761 372.495 222.716L382.357 222.136C385.162 222.137 384.577 217.253 381.772 217.251C378.967 217.25 375.891 217.639 372.95 217.783C373.337 213.483 373.476 209.16 373.365 204.841C376.942 205.337 380.577 204.747 383.861 203.138C384.395 202.892 384.817 202.427 385.033 201.846C385.25 201.264 385.244 200.614 385.016 200.037C384.789 199.46 384.358 199.005 383.82 198.771C383.281 198.537 382.678 198.544 382.144 198.79C379.52 200.113 376.597 200.586 373.729 200.152C373.503 200.152 373.322 200.152 373.096 200.152C372.835 195.241 372.325 190.35 371.566 185.499C375.203 185.374 378.733 184.14 381.747 181.94C384.101 180.232 381.388 176.567 379.08 178.226C376.627 180.02 373.716 180.94 370.755 180.859C369.988 176.854 369.086 172.848 368.047 168.892C371.793 168.259 375.319 166.577 378.274 164.014C378.5 163.824 378.689 163.589 378.831 163.321C378.973 163.053 379.064 162.758 379.1 162.452C379.136 162.146 379.115 161.835 379.04 161.537C378.965 161.24 378.836 160.961 378.661 160.717C378.486 160.473 378.268 160.269 378.019 160.116C377.771 159.963 377.497 159.865 377.214 159.826C376.93 159.787 376.643 159.809 376.367 159.891C376.091 159.972 375.833 160.111 375.607 160.3C373.052 162.431 369.996 163.749 366.784 164.105C360.95 144.384 351.687 126.045 339.491 110.072C337.592 107.628 333.926 110.654 335.87 113.146C350.85 132.783 361.274 155.996 366.276 180.856C365.898 181.115 365.6 181.49 365.42 181.932C365.239 182.374 365.184 182.863 365.261 183.339C365.338 183.815 365.544 184.255 365.853 184.605C366.162 184.954 366.561 185.196 366.997 185.301C369.86 201 369.635 217.174 366.336 232.773C363.849 231.356 362.173 235.701 364.66 237.119C364.84 237.14 365.023 237.14 365.203 237.119C363.055 245.064 359.85 252.629 355.69 259.58L355.69 259.971C354.83 259.971 353.79 259.97 352.478 259.969C351.166 259.968 348.498 257.769 346.417 257.426C344.77 256.974 343.044 256.973 341.396 257.423C342.673 252.471 343.628 247.429 344.254 242.333C347.7 243.036 351.226 243.154 354.704 242.681C355.001 242.64 355.288 242.535 355.548 242.374C355.808 242.213 356.035 241.998 356.218 241.742C356.401 241.486 356.535 241.194 356.614 240.882C356.692 240.569 356.712 240.244 356.674 239.923C356.635 239.602 356.539 239.293 356.39 239.012C356.241 238.732 356.042 238.486 355.804 238.288C355.567 238.091 355.296 237.946 355.007 237.862C354.718 237.777 354.416 237.755 354.119 237.797C350.998 238.206 347.837 238.072 344.755 237.401C345.028 234.177 345.166 230.905 345.213 227.633L353.357 226.465C353.957 226.382 354.501 226.044 354.871 225.527C355.24 225.009 355.404 224.355 355.326 223.707C355.249 223.059 354.936 222.472 354.457 222.073C353.978 221.674 353.371 221.497 352.771 221.581C350.238 221.97 347.704 222.311 345.171 222.7C345.017 217.957 344.612 213.228 343.957 208.536C344.172 208.663 344.4 208.761 344.636 208.829C349.214 209.786 353.955 209.192 358.208 207.128C358.705 206.86 359.089 206.398 359.279 205.835C359.47 205.272 359.454 204.652 359.234 204.101C359.014 203.551 358.608 203.112 358.098 202.875C357.588 202.639 357.013 202.622 356.492 202.829C353.004 204.525 349.107 204.985 345.362 204.141C345.036 204.065 344.696 204.084 344.379 204.196C344.061 204.307 343.776 204.507 343.552 204.775C342.83 200.326 341.881 195.923 340.71 191.586C345.295 190.903 349.709 189.246 353.696 186.71C356.095 185.197 354.424 180.85 352.025 182.411C348.18 184.853 343.916 186.429 339.491 187.043C338.363 183.233 337.098 179.423 335.698 175.71C335.698 175.71 335.924 175.711 336.014 175.711L346.015 171.76C348.639 170.687 346.922 166.389 344.298 167.413L334.298 171.363C334.298 171.363 334.298 171.363 334.027 171.363C332.445 167.552 330.774 163.742 328.966 159.98C331.639 159.697 334.12 158.359 335.935 156.223C337.791 153.978 334.355 151.338 332.454 153.34C331.697 154.202 330.736 154.825 329.676 155.143C328.616 155.46 327.496 155.461 326.436 155.143C325.201 152.798 323.935 150.502 322.64 148.255C323.576 147.99 324.453 147.526 325.219 146.889C325.445 146.7 325.634 146.464 325.776 146.196C325.918 145.928 326.009 145.633 326.045 145.327C326.081 145.021 326.06 144.71 325.985 144.412C325.91 144.115 325.781 143.836 325.606 143.592C325.431 143.348 325.213 143.144 324.965 142.991C324.716 142.838 324.443 142.74 324.159 142.701C323.876 142.662 323.588 142.684 323.312 142.766C323.036 142.847 322.778 142.986 322.552 143.175C322.196 143.469 321.784 143.674 321.346 143.775C320.908 143.876 320.455 143.871 320.019 143.76C316.584 138.141 312.877 132.669 308.99 127.441C308.325 126.625 307.386 126.127 306.381 126.058C305.375 125.988 304.386 126.353 303.629 127.072C302.873 127.79 302.412 128.803 302.348 129.889C302.284 130.974 302.621 132.042 303.287 132.859C325.346 162.518 340.661 198.57 337.88 235.785C337.364 235.735 336.849 235.886 336.428 236.209C336.006 236.533 335.705 237.008 335.579 237.55C335.454 238.092 335.511 238.664 335.742 239.164C335.972 239.664 336.36 240.059 336.837 240.278C337.032 240.256 337.229 240.257 337.425 240.278C336.505 248.266 334.739 256.115 332.163 263.669C329.675 264.352 326.961 262.885 324.518 263.909C323.826 264.163 323.159 264.49 322.527 264.885C322.46 258.875 321.842 252.887 320.682 247.008L320.051 243.491C322.187 244.315 324.502 244.436 326.701 243.837C327.261 243.73 327.762 243.399 328.106 242.91C328.45 242.422 328.611 241.812 328.557 241.201C328.479 240.586 328.178 240.029 327.72 239.654C327.263 239.278 326.685 239.114 326.116 239.197C325.036 239.549 323.898 239.644 322.781 239.475C321.664 239.306 320.595 238.876 319.647 238.216C319.465 238.09 319.267 237.991 319.059 237.923C318.653 235.676 318.157 233.38 317.661 231.133L317.977 231.134C318.377 231.093 318.755 230.923 319.063 230.646C319.38 230.646 319.697 230.646 319.968 230.304L322.955 229.036C325.039 228.271 326.951 227.041 328.567 225.425C330.513 223.229 327.031 220.54 325.13 222.542C323.628 223.771 321.923 224.681 320.107 225.225C318.924 225.606 317.774 226.096 316.668 226.688L315.224 221.022C319.086 220.353 322.686 218.489 325.586 215.656C327.669 213.606 325.002 209.892 322.92 211.942C320.51 214.38 317.458 215.948 314.186 216.43C313.102 212.816 311.928 209.299 310.573 205.781C314.993 204.39 319.042 201.881 322.385 198.462C324.421 196.412 321.755 192.65 319.718 194.749C316.684 197.904 312.965 200.185 308.902 201.385C307.456 197.916 305.829 194.594 304.112 191.321C308.381 189.928 312.195 187.254 315.11 183.611C316.921 181.316 313.484 178.481 311.628 180.776C309.058 183.968 305.622 186.204 301.807 187.168C299.914 183.989 297.862 180.922 295.66 177.983C297.378 176.898 298.986 175.622 300.458 174.176C302.54 172.126 299.873 168.412 297.791 170.463C296.26 171.974 294.556 173.27 292.722 174.318C284.741 164.549 274.753 156.933 263.556 152.079C263.002 151.876 262.397 151.908 261.864 152.169C261.331 152.43 260.91 152.899 260.685 153.482C260.461 154.065 260.45 154.719 260.655 155.311C260.86 155.902 261.265 156.388 261.789 156.669C272.143 161.14 281.42 168.093 288.92 177.002C288.767 177.41 288.721 177.856 288.787 178.29C288.854 178.725 289.03 179.131 289.296 179.464C289.562 179.798 289.909 180.045 290.297 180.18C290.686 180.315 291.101 180.331 291.497 180.227C296.838 187.219 301.277 194.96 304.693 203.238C304.512 203.565 304.406 203.934 304.387 204.315C304.367 204.695 304.433 205.075 304.58 205.421C304.727 205.767 304.95 206.07 305.229 206.303C305.509 206.535 305.837 206.691 306.184 206.756C310.5 217.531 313.93 228.695 316.434 240.119C316.376 240.376 316.376 240.644 316.434 240.901C319.005 253.601 319.721 266.348 315.961 275.43C315.851 275.691 315.794 275.974 315.794 276.26C315.793 276.547 315.85 276.83 315.96 277.091C315.092 276.883 314.244 276.589 313.427 276.21C312.869 275.97 312.262 275.89 311.667 275.978C311.071 276.065 310.507 276.318 310.028 276.711C309.55 277.104 309.174 277.624 308.937 278.221C308.699 278.817 308.609 279.47 308.675 280.115C308.622 280.427 308.514 280.725 308.358 280.994C285.976 249.802 255.429 226.592 220.679 214.374C216.473 212.857 213.8 219.742 218.051 221.21C252.233 233.195 282.209 256.166 303.966 287.047C301.319 290.202 298.443 293.124 295.366 295.784C294.189 296.37 291.837 295.343 290.842 296.27C289.082 297.609 287.627 299.362 286.586 301.396L286.677 301.298ZM317.392 226.396L317.935 226.396C317.935 226.396 317.482 226.494 317.301 226.493L317.392 226.396Z"
          fill="#F4E6C1"/>
</svg>
