<svg width="786" height="809" viewBox="0 0 786 809" fill="none" xmlns="http://www.w3.org/2000/svg">
<path d="M570.938 599.415C574.289 598.169 575.654 592.588 571.519 591.275C570.135 591.095 568.728 591.236 567.407 591.686C565.295 592.073 563.145 592.205 561.003 592.078C559.144 591.993 557.3 591.718 555.497 591.259C553.944 590.885 552.283 589.923 550.655 590.075C549.721 590.1 548.823 590.441 548.109 591.043C547.394 591.645 546.905 592.471 546.722 593.388C546.539 594.304 546.672 595.255 547.1 596.085C547.528 596.916 548.225 597.576 549.078 597.959C555.989 600.908 563.697 601.421 570.938 599.415Z" fill="#F4E6C1"/>
<path d="M543.419 614.405C546.412 614.678 549.426 614.657 552.415 614.343C554.589 614.116 557.277 614.038 558.55 612.077C559.008 611.434 559.272 610.672 559.309 609.883C559.347 609.094 559.158 608.311 558.764 607.627C558.369 606.942 557.786 606.386 557.085 606.023C556.383 605.66 555.592 605.506 554.805 605.58C551.178 606.291 547.468 606.486 543.786 606.159C541.74 606.021 539.748 605.777 538.282 607.749C537.84 608.408 537.579 609.172 537.527 609.964C537.476 610.756 537.634 611.547 537.987 612.258C539.092 614.174 541.373 614.268 543.419 614.405Z" fill="#F4E6C1"/>
<path d="M542.912 621.484C539.841 621.564 536.767 621.435 533.713 621.097C532.932 620.963 532.129 621.067 531.408 621.394C530.687 621.721 530.08 622.257 529.666 622.932C527.635 626.468 530.529 628.982 533.935 629.504C536.657 629.909 539.409 630.082 542.16 630.021C544.045 629.944 545.973 629.835 547.031 628.034C547.466 627.351 547.697 626.558 547.699 625.748C547.7 624.938 547.472 624.144 547.041 623.458C546.61 622.772 545.993 622.223 545.263 621.874C544.532 621.524 543.717 621.389 542.912 621.484Z" fill="#F4E6C1"/>
<path d="M636.269 558.357C641.866 543.846 644.202 528.282 643.111 512.767C642.021 497.253 637.53 482.169 629.959 468.584C625.666 461.224 620.983 454.1 615.929 447.242C612.712 442.961 611.084 442.578 615.258 439.575C619.553 437.381 624.301 436.221 629.124 436.188C631.077 435.861 633.076 435.931 635.001 436.395C636.926 436.859 638.738 437.706 640.329 438.886C643.179 440.629 643.931 442.877 645.967 444.16C646.739 444.652 647.157 445.744 648.068 446.065C648.973 446.404 649.959 446.464 650.899 446.236C651.838 446.008 652.688 445.502 653.336 444.785C655.379 442.513 653.509 435.21 653.453 432.908C653.94 427.335 653.04 421.729 650.834 416.589C643.936 403.755 624.396 398.344 611.039 397.061C608.145 396.857 605.243 396.803 602.343 396.898C597.767 397.577 593.16 398.021 588.539 398.229C593.07 398.642 603.375 390.161 606.714 387.652C619.556 378 630.051 365.759 643.622 357.168C650.914 352.054 659.345 348.8 668.181 347.687C672.899 347.308 677.637 348.125 681.956 350.062C685.502 351.75 688.163 355.914 691.516 357.346C693.498 358.201 695.116 359.195 697.139 357.608C699.161 356.021 699.972 352.464 697.649 353.741C698.42 353.162 698.183 352.134 697.647 351.599C690.883 344.827 687.61 338.243 678.833 332.983C671.271 328.317 663.025 324.863 654.394 322.747C637.994 319.197 621.379 325.521 606.51 331.94C597.335 335.954 588.612 340.836 579.663 345.418C583.002 342.908 586.03 339.896 588.822 337.194C603.513 323.14 612.759 304.603 627.739 290.933C633.967 284.901 641.375 280.223 649.498 277.192C654.605 275.468 660.048 274.981 665.379 275.774C671.196 276.829 675.785 282.757 681.034 283.502C687.707 284.448 688.559 279.521 684.217 275.349C673.283 264.81 652.072 259.315 637.334 256.995C619.076 254.451 600.528 258.832 585.339 269.277C581.246 272.206 577.495 275.587 574.158 279.355C572.703 280.984 565.582 293.436 563.772 293.523C561.962 293.611 556.67 281.043 553.744 278.486C551.401 276.367 548.623 274.783 545.606 273.847C542.588 272.91 539.403 272.643 536.271 273.063C534.933 273.372 533.656 273.901 532.492 274.63C554.143 237.928 566.08 189.101 533.983 156.286C519.453 141.933 499.923 133.774 479.501 133.528C472.069 133.353 432.756 136.037 436.785 149.152C438.697 155.351 445.259 152.496 450.508 153.241C466.553 155.517 485.562 165.747 490.676 182C496.467 200.222 487.585 218.351 476.889 232.552C472.619 238.865 467.908 244.868 462.791 250.516C460.972 252.285 461.424 254.223 458.51 253.733C457.836 253.637 452.843 240.844 451.985 239.345C425.217 191.071 366.558 168.102 313.579 169.536C199.117 172.765 109.319 274.413 99.3281 385.011C95.0006 443.193 110.492 501.127 143.281 549.384C160.967 574.877 187.483 585.293 213.554 599.929C244.908 617.494 262.557 649.713 292.414 669.208C346.737 705.214 412.19 701.037 471.513 681.305C534.788 660.681 608.176 622.675 636.269 558.357ZM490.551 665.725C426.649 690.774 353.503 702.541 293.722 660.253C267.38 641.601 251.105 612.904 222.965 596.407C196.7 580.978 169.188 570.842 150.506 545.36C116.222 498.582 101.912 432.035 109.643 375.116C118.1 316.935 147.306 263.774 191.875 225.431C237.963 186.039 304.432 168.506 363.554 184.427C392.259 191.879 417.789 208.405 436.341 231.543C444.866 242.887 454.497 256.95 451.213 271.207C450.839 272.761 448.932 282.969 449.05 282.947C446.117 284.482 437.373 278.996 434.341 277.992C422.443 274.711 410.239 272.659 397.922 271.87C377.111 269.492 358.191 262.945 343.728 247.087C339.782 242.818 334.92 231.267 330.922 228.176C329.229 226.903 329.024 225.65 326.486 226.017C321.806 226.653 323.995 230.1 322.958 232.821C322.766 233.368 320.486 234.077 319.962 235.073C317.291 241.007 314.948 247.084 312.944 253.276C310.188 260.839 307.675 268.489 305.405 276.223C304.647 278.602 300.884 285.717 302.965 288.842C305.045 291.967 306.641 291.237 308.524 289.286C315.167 282.35 321.576 253.621 322.868 250.171C325.913 242.189 325.001 240.798 327.462 249.331C328.488 252.339 328.984 255.502 328.928 258.679C327.719 271.511 322.325 285.546 319.789 298.571C319.192 301.699 316.97 307.388 322.196 307.747C329.758 308.361 329.956 291.332 330.905 287.336C331.854 283.341 332.739 279.259 333.399 275.146C335.018 266.159 333.373 270.209 335.163 271.878C338 275.886 339.897 280.482 340.713 285.324C340.099 287.643 339.354 289.925 338.481 292.159C337.265 296.958 332.383 309.536 333.855 314.258C334.8 317.298 335.874 319.439 339.91 317.947C341.077 317.539 341.45 315.985 342.081 315.042C343.193 311.944 343.92 308.72 344.246 305.444C344.928 302.252 345.578 299.017 346.185 295.814C345.723 293.683 345.926 293.598 346.656 295.46C349.302 298.341 351.357 301.711 352.706 305.382C352.867 305.596 350.459 307.473 350.224 308.319C349.114 312.101 343.314 327.646 347.355 331.241C350.464 333.862 352.699 331.311 354.314 328.824C355.816 322.889 357.001 316.879 357.863 310.818C359.111 313.324 360.652 315.674 362.454 317.817C363.958 323.385 364.834 320.985 362.399 327.638C361.288 330.884 355.793 340.775 361.632 343.286C367.472 345.797 367.655 336.147 369.301 333.169C372.305 327.629 370.422 329.044 375.339 330.507C375.81 330.688 380.43 334.518 380.097 333.629C381.289 336.819 374.282 344.698 374.725 348.853C374.921 351.787 376.499 355.491 380.331 354.084C382.344 353.376 382.46 350.944 383.39 349.241C385.196 345.405 383.918 341.476 389.39 340.913C387.719 341.097 396.076 344.998 395.883 344.473C396.839 347.439 389.757 354.771 392.267 358.646C394.776 362.52 397.121 361.361 399.475 359.324C401.316 357.941 401.322 353.85 402.091 351.932C396.771 365.442 402.945 348.076 402.506 348.204C402.885 349.158 403.505 349.997 404.305 350.64C405.105 351.283 406.058 351.708 407.071 351.873C410.487 351.249 410.938 352.652 408.5 356.092C408.632 359.744 403.276 368.927 407.584 372.254C411.067 374.928 412.811 372.612 414.457 369.901C416.104 367.19 414.244 359.545 416.34 356.362L419.821 357.43C427.481 359.779 427.27 363.152 425.843 370.79C425.278 373.96 421.496 382.832 427.761 383.415C434.027 383.998 433.781 373.599 434.388 370.128C435.741 361.945 437.743 362.114 445.347 361.892C446.429 361.816 459.716 358.73 460.113 359.168C461.754 361.352 452.615 380.209 451.837 383.273C450.328 390.269 449.396 397.376 449.052 404.524C448.798 407.93 446.333 417.218 448.981 420.117C458.341 430.432 457.582 399.386 458.591 390.656C459.662 394.235 460.939 397.749 462.414 401.18C463.909 407.626 461.558 412.608 461.414 419.013C461.311 422.708 460.927 435.656 466.037 436.84C471.146 438.024 470.779 434.683 471.376 431.823C471.633 431.63 470.165 420.14 469.464 415.107C469.882 415.128 470.912 417.568 472.424 419.045C477.933 423.613 476.33 427.63 476.144 433.799C476.083 437.73 474.147 451.108 479.237 453.513C485.805 456.548 484.843 447.692 484.754 444.543C484.665 441.395 483.717 434.874 485.504 433.865C488.415 436.072 491.165 438.481 493.736 441.075C495.667 444.447 494.872 452.748 495.519 456.817C495.993 459.944 496.172 468.115 501.751 466.803C509.942 464.867 500.066 452.529 502.825 448.445C504.504 446.045 504.956 447.715 507.827 449.04C508.76 449.478 512.037 450.364 512.198 450.578C514.804 454.046 508.816 463.904 511.938 468.86C513.772 471.3 516.012 473.568 519.105 470.909C520.046 470.201 519.691 468.66 520.087 467.76C521.412 464.888 519.172 463.423 518.132 461.593C518.077 460.361 518.129 459.183 518.192 457.93C518.616 457.232 519.119 456.584 519.69 456.001C522.739 452.838 523.48 455.162 526.94 455.308C539.877 455.767 551.393 458.433 564.596 456.481C570.804 455.542 576.921 454.081 582.884 452.115C586.653 450.891 590.335 449.463 593.986 447.992C600.57 445.255 601.554 444.515 606.497 449.843C626.159 471.104 638.037 504.378 633.856 533.041C628.962 566.193 605.524 593.386 580.643 613.759C553.363 635.464 522.998 652.978 490.551 665.725ZM493.971 221.59C497.66 215.803 506.234 211.168 507.684 204.184C507.717 203.953 507.686 203.718 507.595 203.503C507.505 203.287 507.357 203.101 507.168 202.964C503.653 200.247 499.492 205.317 499.106 205.071C502.66 200.116 505.955 194.979 508.976 189.682C509.009 189.45 508.983 189.214 508.9 188.995C508.818 188.776 508.681 188.582 508.504 188.429C504.913 185.702 506.426 188.517 502.806 188.157C500.471 187.902 502.551 190.759 500.708 189.733C500.708 189.733 499.19 181.027 499.319 181.466C498.341 177.902 496.897 174.483 495.025 171.296C490.895 164.549 485.08 158.992 478.152 155.173C476.705 154.318 474.583 152.831 472.612 151.902C478.268 152.869 483.833 154.311 489.248 156.212C503.851 161.649 518.705 172.59 524.46 187.557C525.865 191.288 526.432 195.282 526.119 199.256C525.807 203.231 524.623 207.087 522.651 210.552C521.711 212.599 519.326 216.2 520.817 218.629C526.438 227.802 532.963 209.032 533.754 206.697C539.542 189.888 528.033 172.346 515.557 161.895C508.539 155.962 500.519 151.328 491.875 148.209C487.89 146.765 483.818 145.574 479.684 144.644C475.645 143.727 465.439 143.962 462.996 142.851C467.714 143.063 472.442 142.85 477.122 142.216C482.456 142.137 487.784 142.623 493.016 143.667C504.96 146.076 516.052 151.608 525.161 159.7C533.838 167.578 539.992 177.845 542.85 189.21C544.289 193.074 544.831 197.215 544.434 201.32C544.037 205.424 542.713 209.385 540.56 212.902C538.625 216.031 529.893 223.129 529.479 226.857C528.916 232.169 531.433 232.488 534.516 230.707C529.787 235.199 525.764 239.83 528.971 244.186C529.115 244.379 529.309 244.529 529.531 244.621C529.754 244.713 529.997 244.744 530.235 244.709C531.429 244.564 532.563 244.104 533.522 243.378C529.969 246.048 526.33 248.783 529.547 253.063C529.687 253.251 529.873 253.401 530.087 253.498C530.3 253.595 530.535 253.637 530.769 253.619C534.174 253.07 539.556 248.02 532.333 254.721C528.995 257.765 514.972 265.222 513.841 269.422C512.71 273.621 513.965 275.558 518.548 274.526C522.146 273.697 524.657 268.126 528.147 266.977C525.46 267.857 521.581 276.6 519.217 280.051C512.772 289.611 504.998 298.205 496.131 305.574C493.299 308.037 490.295 310.294 487.141 312.33C485.129 313.842 482.134 316.897 482.687 313.534C483.241 310.17 493.735 308.446 495.787 304.225C495.894 304.016 495.94 303.782 495.919 303.549C495.898 303.315 495.811 303.093 495.668 302.907C493.898 300.553 494.317 301.109 492.003 300.705C492.003 300.705 491.703 300.93 491.307 300.759C492.677 299.73 493.275 298.208 492.266 295.617C492.177 295.404 492.036 295.216 491.857 295.07C491.677 294.924 491.464 294.826 491.237 294.783C488.206 294.583 483.625 298.025 486.022 295.956C489.297 293.093 493.376 292.103 495.353 288.139C495.431 287.918 495.454 287.683 495.42 287.451C495.386 287.22 495.297 287 495.159 286.811C494.617 285.805 493.742 285.018 492.683 284.586C489.587 283.497 486.572 288.576 487.608 285.855C491.689 275.152 504.939 267.203 510.402 256.734C511.909 253.927 516.902 245.151 513.836 241.694C510.769 238.238 508.341 241.068 506.512 243.179C503.506 246.577 502.207 254.386 499.233 258.63C495.714 263.212 491.939 267.592 487.926 271.75C481.104 278.651 476.231 287.236 473.803 296.632C473.143 300.125 472.781 303.669 472.721 307.225C470.378 303.807 467.57 300.731 464.38 298.087C464.237 294.777 471.714 296.259 469.374 290.381C469.3 290.159 469.163 289.962 468.981 289.814C468.799 289.666 468.578 289.574 468.345 289.547C467.46 289.475 466.569 289.556 465.71 289.785C468.686 288.219 470.847 285.925 469.473 282.403C469.442 282.229 469.371 282.064 469.265 281.923C469.158 281.782 469.021 281.667 468.862 281.589C471.062 279.919 472.996 277.924 474.596 275.672C474.679 275.452 474.704 275.215 474.67 274.983C474.636 274.751 474.544 274.531 474.402 274.344C473.18 272.717 472.183 272.194 471.144 272.237C471.246 272.028 471.288 271.794 471.267 271.562C471.246 271.33 471.163 271.108 471.025 270.92C471.025 270.92 468.646 268.556 468.699 268.716C468.434 268.66 468.161 268.66 467.896 268.717C470.657 266.241 474.502 267.168 472.452 261.944C472.452 261.944 472.452 261.944 472.227 261.644C475.491 259.571 478.526 257.155 481.28 254.439C482.584 251.985 482.775 249.832 479.989 248.71C486.701 245.341 498.573 240.638 495.911 233.797C495.823 233.578 495.676 233.387 495.487 233.246C495.298 233.104 495.074 233.018 494.839 232.995C494.017 232.92 493.188 232.957 492.376 233.105C498.743 227.851 504.221 222.126 499.656 219.796C495.809 217.797 491.372 225.62 493.971 221.59ZM540.443 235.831C539.354 237.509 538.18 239.129 536.925 240.686C535.856 241.665 534.694 242.537 533.457 243.292C534.455 242.428 535.381 241.485 536.228 240.473C536.228 240.473 545.032 229.637 540.443 235.831ZM626.955 267.34C609.646 271.686 594.388 281.92 583.802 296.288C582.433 298.121 567.803 319.565 580.331 316.715C584.678 315.725 587.549 305.73 589.571 303.072C597.957 290.843 610.122 281.7 624.202 277.046C626.322 276.391 632.254 275.549 635.659 274.464C632.009 276.738 625.608 280.879 625.823 280.718C617.148 288.148 609.586 296.787 603.368 306.368C588.42 327.552 569.025 345.214 546.539 358.12C538.34 362.808 530.265 362.045 521.29 361.957C526.445 360.642 531.356 358.511 535.838 355.646C540.965 352.663 561.869 340.637 559.795 333.421C557.087 323.667 542.537 339.692 540.397 341.301C538.257 342.909 524.731 354.146 521.452 352.19C518.172 350.233 521.972 347.713 522.036 347.53C522.1 347.348 524.178 347.528 524.531 346.928C526.733 343.263 527.184 333.346 532.41 332.902C530.365 333.032 536.184 336.764 536.44 336.571C536.68 336.597 536.923 336.56 537.144 336.464C537.366 336.368 537.559 336.216 537.704 336.024C539.672 333.473 540.437 327.271 542.803 326.23C545.168 325.189 546.369 326.698 548.361 325.871C552.065 324.293 552.163 315.511 554.611 321.709C554.705 321.935 554.856 322.131 555.05 322.28C555.244 322.428 555.473 322.523 555.715 322.554C558.714 322.98 558.832 322.958 560.703 320.279C562.358 315.567 563.681 310.746 564.663 305.849C565.176 305.463 565.497 304.82 565.925 304.231C566.352 303.641 566.439 304.916 567.051 305.729C567.151 305.939 567.302 306.122 567.488 306.262C567.675 306.401 567.892 306.494 568.122 306.531C572.846 307.201 572.704 304.428 573.878 300.464C575.927 294.084 579.26 288.191 583.672 283.147C588.083 278.103 593.481 274.016 599.532 271.137C610.521 266.344 622.543 264.406 634.483 265.502L635.264 265.651C632.234 265.986 629.161 266.888 626.955 267.34ZM550.908 367.765C581.206 357.722 608.48 332.067 641.196 330.053C650.591 329.812 659.88 332.08 668.106 336.624C682.646 343.85 672.885 339.329 665.731 339.882C652.314 341.495 639.727 347.232 629.709 356.303C627.355 358.073 612.046 375.137 609.946 374.572C610.643 374.785 615.168 369.576 614.523 366.846C613.597 362.584 611.905 362.115 608.351 364.249C605.787 367.389 603.561 370.791 601.71 374.398C601.639 373.713 601.416 373.052 601.055 372.465C600.695 371.878 600.208 371.379 599.629 371.005C599.447 370.862 599.232 370.767 599.004 370.728C598.776 370.689 598.542 370.707 598.323 370.781C594.135 373.612 590.695 377.415 588.298 381.865C587.398 380.666 585.898 380.454 583.211 381.335C580.524 382.215 576.708 390.508 574.654 392.588C568.481 398.634 576.242 395.682 564.303 398.157C554.706 400.978 544.432 400.424 535.193 396.589C530.607 395.042 526.307 392.752 522.463 389.812C520.898 388.443 519.73 387.512 519.302 387.834C520.586 386.869 531.074 390.039 533.259 390.273C546.583 391.512 564.092 390.746 575.608 382.895C579.333 380.096 583.473 375.979 576.799 373.426C573.392 372.102 560.055 380.115 556.04 380.922C545.167 382.96 533.985 382.665 523.235 380.055C519.371 379.113 515.583 377.885 511.901 376.382C511.56 367.461 526.397 371.248 530.456 371.212C537.398 371.003 544.28 369.843 550.908 367.765ZM635.956 414.172C638.614 416.194 644.542 422.121 644.354 426.416C643.989 425.383 643.315 424.486 642.424 423.848C636.592 417.305 629.01 412.567 620.573 410.193C617.799 409.531 589.032 408.778 599.879 417.774C601.658 419.25 604.698 417.769 606.572 417.767C613.266 417.761 628.913 418.26 632.701 425.796C632.965 426.658 633.523 427.4 634.278 427.893C633.112 427.854 631.947 427.985 630.819 428.282C629.555 428.562 627.82 428.392 626.46 428.543C620.45 429.296 614.558 430.798 608.922 433.016C582.018 442.852 556.711 454.101 527.435 446.965C498.158 439.829 471.51 415.779 466.928 384.726C465.646 377.058 466.38 369.189 469.058 361.891C470.107 358.699 471.734 355.728 473.858 353.125C474.252 352.858 474.549 352.471 474.703 352.021C475.093 352.664 475.546 353.266 476.055 353.819C482.801 363.687 480.097 380.59 484.992 391.916C489.293 401.778 495.79 410.528 503.987 417.497C512.185 424.466 521.867 429.47 532.293 432.127C536.653 433.204 571.133 439.243 566.002 426.889C563.673 421.205 547.666 425.665 542.953 425.187C534.473 424.257 526.274 421.599 518.862 417.377C511.449 413.155 504.981 407.459 499.855 400.64C490.839 386.832 485.758 370.826 485.158 354.346C484.746 349.163 482.295 350.536 485.379 350.362C488.259 353.944 491.367 357.336 494.685 360.516C492.761 360.556 490.841 360.744 488.945 361.078C488.729 361.184 488.539 361.339 488.393 361.531C488.246 361.722 488.146 361.945 488.101 362.182C487.547 366.081 488.854 365.769 491.64 367.694L493.387 368.86C492.673 368.977 492 369.274 491.432 369.721C490.863 370.169 490.418 370.753 490.136 371.42C489.854 372.086 489.746 372.813 489.821 373.533C489.896 374.252 490.153 374.941 490.566 375.535C491.724 377.076 497.401 377.499 497.615 377.606C502.211 379.176 494.606 377.523 491.972 378.565C491.753 378.652 491.562 378.799 491.42 378.988C491.279 379.177 491.192 379.401 491.17 379.636C490.638 383.117 490.948 382.282 493.488 384.592C495.262 385.859 497.355 386.606 499.53 386.75C496.212 388.306 495.465 391.413 498.681 394.087C501.896 396.761 507.207 394.914 510.109 395.211L516.837 396.854C514.443 396.662 512.034 396.783 509.672 397.214C508.859 397.825 508.516 398.083 507.403 398.919C507.21 399.063 507.06 399.257 506.968 399.479C506.876 399.702 506.845 399.945 506.88 400.183C507.614 406.33 513.888 404.161 518.771 403.706L519.274 403.663C518.481 403.861 517.743 404.239 517.118 404.766C516.492 405.294 515.997 405.958 515.668 406.708C514.282 412.974 524.015 410.416 526.488 409.964C528.962 409.511 531.36 408.781 533.812 408.478C536.264 408.176 544.038 406.22 537.688 407.843C533.442 408.324 529.455 410.126 526.288 412.995C526.148 413.172 526.058 413.384 526.026 413.608C525.994 413.831 526.022 414.06 526.107 414.269C529.349 422.416 543.327 413.385 549.055 411.826C568.226 406.585 588.062 404.18 607.93 404.69C617.939 405.398 627.6 408.651 635.999 414.14L635.956 414.172ZM462.625 332.563C462.327 332.452 462.011 332.395 461.693 332.393C462.024 332.377 462.355 332.424 462.668 332.531L462.625 332.563ZM496.551 319.325C496.294 319.518 496.038 319.711 495.695 319.968C497.44 318.992 498.178 318.637 496.744 319.581C496.615 319.142 496.572 319.175 496.594 319.292L496.551 319.325ZM489.015 322.845L488.844 323.509C489.444 323.059 490.043 322.608 490.599 322.19L490.322 322.801C489.722 323.251 489.08 323.734 488.395 324.248C487.509 326.723 483.508 331.739 486.317 334.317C489.125 336.896 490.216 334.871 492.206 333.241C494.454 329.896 496.026 326.143 496.833 322.194C496.926 322.41 497.07 322.601 497.251 322.751C502.051 324.77 501.93 321.579 504.208 318.193C505.748 315.478 507.982 313.221 510.681 311.653C511.237 311.235 512.716 312.133 513.519 311.597C517.799 308.38 517.922 302.125 522.728 299.518C523.712 298.778 525.962 299.097 527.738 297.896C529.515 296.695 526.94 292.199 529.439 295.345C532.399 299.284 529.08 301.108 526.041 303.392C518.979 308.486 512.722 314.612 507.477 321.563C504.579 325.55 492.896 348.598 505.104 347.194C505.332 347.152 505.548 347.057 505.733 346.917C505.919 346.778 506.07 346.597 506.174 346.389C508.524 340.604 507.747 334.489 511.34 328.574C516.183 321.195 522.358 314.783 529.549 309.664C531.076 308.286 532.724 307.048 534.472 305.964C531.915 308.355 528.864 310.179 526.297 312.912C523.729 315.646 515.306 321.641 516.446 326.545C518.65 334.736 527.483 321.8 528.521 320.686C529.559 319.571 540.3 307.48 544.051 310.957C545.499 312.347 538.52 316.253 537.588 316.885C529.758 322.232 522.855 328.823 517.152 336.397C513.248 341.809 506.008 352.408 511.531 359.311C512.646 360.733 514.264 361.675 516.053 361.941C512.724 362.788 509.321 363.305 505.891 363.482C502.634 362.714 502.397 360.883 500.669 357.693C497.977 352.011 494.067 346.991 489.217 342.989C483.419 338.84 482.404 341.411 482.011 334.204C482.011 334.204 481.535 329.471 481.663 328.571L481.812 327.253C482.796 326.513 485.355 325.194 488.02 323.66C488.277 323.467 488.33 323.092 488.48 322.845L489.015 322.845ZM506.269 388.585C505.219 388.452 504.19 388.191 503.205 387.807C504.243 387.993 505.267 388.253 506.269 388.585ZM594.868 386.774C595.232 385.497 595.83 384.298 596.632 383.238C595.954 384.388 595.351 385.58 594.826 386.806L594.868 386.774ZM481.192 306.82C481.46 305.994 481.942 305.253 482.588 304.674C483.235 304.094 484.023 303.695 484.873 303.518C483.322 304.226 482.024 305.389 481.149 306.852L481.192 306.82ZM474.362 331.245L473.407 329.35C471.404 325.616 468.844 322.209 465.814 319.248C459.396 313.124 451.504 308.764 442.905 306.59C437.954 305.254 432.871 304.468 427.748 304.248C423.093 304.308 418.439 304.07 413.814 303.534C409.883 302.589 406.091 301.139 402.532 299.218C400.657 298.417 401.695 297.034 399.049 296.812C388.971 295.879 397.517 306.806 401.203 308.591C404.889 310.375 410.072 309.963 413.918 311.695L414.433 311.844C414.147 312.027 413.875 312.232 413.619 312.455C410.617 314.489 407.401 316.187 404.028 317.52C400.346 319.751 397.016 320.311 398.874 325.011C398.962 325.224 399.103 325.413 399.283 325.558C399.462 325.704 399.675 325.802 399.903 325.845C403.137 326.228 431.953 310.734 432.426 312.79C433.372 316.634 415.884 317.519 419.062 325.848C419.13 326.074 419.265 326.275 419.448 326.423C419.632 326.572 419.856 326.662 420.091 326.682C423.229 326.936 422.179 326.519 425.123 325.446C428.498 323.72 431.742 321.752 434.831 319.557C436.491 318.645 442.847 313.198 439.981 317.495C437.115 321.793 431.675 322.398 435.535 327.534C435.672 327.726 435.857 327.879 436.071 327.976C436.286 328.074 436.522 328.113 436.757 328.09C441.907 327.1 444 320.972 449.248 320.645C454.495 320.319 445.566 323.412 444.861 324.88C444.323 325.667 443.881 326.516 443.546 327.409C443.453 327.627 443.422 327.866 443.456 328.1C443.49 328.334 443.589 328.555 443.74 328.737C445.831 331.519 445.659 330.845 449.108 330.531C451.419 328.793 453.731 327.056 456 325.351C459.748 325.883 459.642 326.9 455.724 328.372C452.12 333.826 453.539 328.138 451.209 332.703C451.121 332.921 451.093 333.159 451.127 333.393C451.161 333.626 451.256 333.846 451.403 334.03C455.649 339.681 458.448 332.085 461.939 331.739C460.076 332.201 461.58 337.233 461.72 337.597C463.244 340.605 464.354 336.824 465.801 338.215C470.667 342.729 470.401 344.336 464.964 347.351C449.111 356.384 429.691 352.826 414.112 345.376C382.796 330.265 358.174 304.106 344.984 271.933C344.265 270.263 337.747 253.391 337.123 250.243C340.551 254.25 344.294 257.978 348.315 261.391C353.138 265.135 359.545 267.42 364.143 271.132L365.065 271.913C364.845 272.009 364.657 272.164 364.521 272.361C364.385 272.558 364.306 272.789 364.294 273.028C364.294 273.028 362.796 274.154 362.283 275.075C362.151 275.251 362.069 275.459 362.045 275.678C362.02 275.896 362.055 276.117 362.145 276.318C363.605 280.043 365.136 279.495 368.938 279.117C370.148 278.944 383.798 274.647 383.716 277.657C383.768 276.211 378.824 280.06 377.872 281.111C377.731 281.303 377.64 281.526 377.607 281.762C377.573 281.997 377.599 282.237 377.68 282.46C380.837 290.404 392.758 281.043 398.016 280.106C407.364 278.372 395.704 281.843 394.57 283.365C392.709 285.969 392.688 285.851 393.772 288.721C393.861 288.949 394.011 289.149 394.206 289.298C394.401 289.447 394.632 289.539 394.876 289.565C398.206 289.424 401.421 288.311 404.126 286.365C406.806 285.156 409.559 284.116 412.37 283.251C409.159 285.129 406.803 286.095 408.467 290.27C408.547 290.489 408.685 290.683 408.866 290.83C409.047 290.977 409.265 291.072 409.496 291.104C413.47 291.4 411.424 291.263 416.445 289.03C419.265 287.666 422.156 286.455 425.106 285.402C433.041 284.73 433.802 285.565 427.089 287.595C426.675 291.591 424.006 288.573 425.777 293.069C425.866 293.298 426.016 293.497 426.211 293.646C426.406 293.796 426.637 293.888 426.881 293.915C431.005 294.5 428.691 294.095 434.001 292.248C444.654 288.596 452.327 294.082 459.35 302.001C464.278 307.808 468.179 314.414 470.882 321.535C472.944 326.684 471.486 325.368 474.144 327.925C474.074 329.045 474.133 330.17 474.319 331.277L474.362 331.245ZM552.278 290.707C554.027 294.282 559.716 306.754 551.328 304.416C548.426 303.338 545.84 301.551 543.804 299.219C544.366 299.099 544.887 298.836 545.317 298.454C545.746 298.073 546.069 297.586 546.255 297.042C546.97 294.964 545.265 292.963 544.364 291.229C543.463 289.495 543.463 290.03 544.148 289.248C544.789 288.698 545.272 287.988 545.549 287.19C546.616 283.173 542.202 281.935 539.366 283.866C538.548 284.509 537.885 285.328 537.428 286.264C536.971 287.199 536.731 288.225 536.726 289.266C536.746 289.794 536.825 290.319 536.963 290.829C535.472 288.132 535.244 285.422 538.241 283.17C544.535 280.316 549.349 284.938 552.235 290.739L552.278 290.707ZM545.473 275.324C544.346 274.974 543.197 274.696 542.034 274.492C543.206 274.592 544.353 274.884 545.43 275.356L545.473 275.324Z" fill="#F4E6C1"/>
<path d="M486.941 325.341C487.421 324.94 487.921 324.564 488.439 324.215L488.685 323.562L488.385 323.787C488.024 324.405 487.531 324.935 486.941 325.341Z" fill="#F4E6C1"/>
<path d="M361.857 275.664C361.451 276.102 361.451 276.102 361.857 275.664V275.664Z" fill="#F4E6C1"/>
<path d="M534.38 473.497C534.38 473.497 534.38 473.497 534.755 473.55C535.13 473.603 534.755 473.55 534.948 473.807C552.206 477.355 570.122 475.847 586.543 469.462C587.882 468.925 609.58 458.847 597.133 456.278C592.945 455.34 586.203 460.809 582.327 462.247C571.181 466.269 559.332 467.972 547.504 467.251C543.981 467.019 535.827 463.568 532.735 466.494C529.643 469.421 532.162 471.882 534.38 473.497Z" fill="#F4E6C1"/>
<path d="M562.872 488.057C559.82 488.274 552.321 486.139 550.301 490.136C548.868 492.954 550.702 494.858 552.984 496.023C567.625 497.249 582.291 493.965 595.01 486.611C598.618 484.637 606.507 481.053 607.338 476.275C607.422 475.689 607.389 475.092 607.243 474.519C607.096 473.945 606.837 473.407 606.481 472.933C606.126 472.46 605.68 472.062 605.17 471.761C604.66 471.46 604.096 471.263 603.509 471.181C599.996 470.874 593.62 477.809 590.516 479.472C582.005 484.239 572.586 487.164 562.872 488.057Z" fill="#F4E6C1"/>
<path d="M613.58 498.307C616.382 494.192 614.033 489.996 608.851 491.479C599.627 497.852 589.3 502.456 578.395 505.057C574.133 505.982 561.859 504.891 558.96 508.074C552.326 515.203 566.239 515.264 569.109 514.983C577.106 514.143 584.964 512.289 592.493 509.466C597.578 507.587 610.072 503.355 613.58 498.307Z" fill="#F4E6C1"/>
<path d="M617.789 517.453C621.169 513.572 618.144 509.013 613.091 510.667C604.374 516.158 594.715 519.987 584.604 521.962C579.967 522.834 569.213 521.538 565.629 524.701C564.949 525.326 564.492 526.157 564.329 527.066C564.165 527.975 564.304 528.912 564.723 529.735C566.751 533.771 573.454 531.815 576.677 531.469C583.668 530.816 590.57 529.424 597.268 527.315C602.996 525.489 613.531 522.394 617.789 517.453Z" fill="#F4E6C1"/>
<path d="M592.127 549.53C598.351 548.785 604.37 546.833 609.846 543.783C613.57 540.985 612.365 535.192 606.968 536.032C599.601 539.203 591.846 541.382 583.906 542.513C579.34 543.009 574.748 543.239 570.155 543.201C568.699 543.224 566.738 542.755 565.293 543.506C564.39 544.002 563.679 544.786 563.274 545.734C562.869 546.682 562.794 547.739 563.06 548.734C564.327 552.203 568.9 551.513 571.813 551.467C578.635 551.573 585.448 550.923 592.127 549.53Z" fill="#F4E6C1"/>
<path d="M600.622 564.046C601.484 563.64 602.179 562.947 602.588 562.087C602.997 561.226 603.095 560.25 602.866 559.325C602.636 558.4 602.094 557.583 601.33 557.013C600.566 556.443 599.628 556.155 598.676 556.198C591.991 557.729 585.189 558.696 578.341 559.088C574.038 559.31 569.726 559.286 565.425 559.015C563.455 558.889 560.669 558.035 558.603 558.851C557.739 559.192 557.011 559.808 556.532 560.604C556.052 561.4 555.849 562.331 555.952 563.255C556.373 567.024 560.025 566.892 563.12 567.178C569.482 567.688 575.873 567.699 582.237 567.213C588.51 567.328 594.749 566.253 600.622 564.046Z" fill="#F4E6C1"/>
<path d="M588.11 583.765C589.017 583.524 589.818 582.988 590.387 582.243C590.956 581.497 591.261 580.583 591.254 579.645C591.247 578.706 590.928 577.797 590.348 577.06C589.768 576.323 588.959 575.799 588.049 575.572C585.558 575.535 583.074 575.826 580.66 576.436C577.584 576.713 574.493 576.798 571.407 576.691C568.793 576.564 566.19 576.284 563.609 575.853C561.478 575.512 558.371 574.23 556.111 574.789C551.218 575.587 552.648 581.679 556.312 583.079C566.692 585.93 577.617 586.166 588.11 583.765Z" fill="#F4E6C1"/>
<path d="M206.474 499.414C207.177 499.058 207.767 498.512 208.176 497.838C208.586 497.164 208.799 496.389 208.792 495.601C208.784 494.812 208.556 494.042 208.134 493.376C207.712 492.71 207.112 492.175 206.402 491.832C204.796 491.228 203.303 490.357 201.987 489.255C200.819 488.325 200.218 486.901 198.964 486.035C198.451 485.577 197.823 485.267 197.148 485.137C196.473 485.008 195.775 485.064 195.129 485.299C194.41 485.523 193.761 485.931 193.247 486.481C192.733 487.032 192.371 487.707 192.198 488.44C192.123 489.397 192.284 490.358 192.666 491.238C193.047 492.119 193.638 492.893 194.387 493.493C196.778 496.05 202.524 501.378 206.474 499.414Z" fill="#F4E6C1"/>
<path d="M204.968 514.076C205.801 513.965 206.578 513.599 207.195 513.029C207.811 512.459 208.236 511.712 208.412 510.89C208.587 510.069 208.503 509.214 208.173 508.441C207.843 507.669 207.282 507.018 206.567 506.577L206.213 506.106C202.227 504.814 198.662 502.472 195.893 499.327C194.606 497.614 193.501 495.698 190.985 495.915C190.193 496.017 189.442 496.322 188.804 496.801C188.166 497.281 187.664 497.918 187.346 498.65C186.449 500.932 187.875 502.74 189.28 504.431C191.567 507.158 194.304 509.473 197.372 511.277C199.323 512.625 202.377 514.549 204.968 514.076Z" fill="#F4E6C1"/>
<path d="M201.491 530.222C205.219 530.904 209.027 526.434 205.758 523.332C204.782 522.653 203.709 522.127 202.575 521.771C200.191 520.82 198.025 519.394 196.21 517.579C194.226 515.653 193.013 511.81 190.323 510.816C189.617 510.508 188.838 510.407 188.077 510.525C187.315 510.642 186.603 510.974 186.022 511.48C185.442 511.987 185.017 512.648 184.797 513.386C184.577 514.124 184.571 514.91 184.781 515.652C186.378 519.123 188.694 522.217 191.574 524.728C194.455 527.24 197.834 529.112 201.491 530.222Z" fill="#F4E6C1"/>
<path d="M206.387 551.792C212.063 551.144 211.243 545.865 207.396 543.598C204.057 542.083 200.939 540.123 198.127 537.77C195.833 535.609 193.421 533.47 191.309 531.105C189.197 528.74 188.356 523.343 185.12 521.89C177.535 518.481 179.923 529.145 181.757 532.121C186.809 540.18 196.554 549.938 206.044 551.782L206.387 551.792Z" fill="#F4E6C1"/>
<path d="M204.063 564.39C204.206 564.356 204.341 564.293 204.459 564.204C204.577 564.116 204.675 564.004 204.748 563.876C208.923 562.211 207.836 556.933 203.305 555.984C200.188 555.781 197.112 555.165 194.157 554.151C190.971 552.657 188.248 550.328 186.279 547.411C184.606 545.185 184.12 541.063 180.671 540.841C172.531 540.26 178.25 550.632 180.309 553.372C183.107 556.964 186.722 559.838 190.853 561.754C194.984 563.67 199.513 564.574 204.063 564.39Z" fill="#F4E6C1"/>
<path d="M203.216 573.607C197.527 570.849 191.676 568.145 186.147 565.066C183.548 563.329 181.086 561.394 178.784 559.28C178.093 558.597 177.211 558.138 176.255 557.965C175.286 557.875 174.314 558.114 173.497 558.643C172.679 559.172 172.064 559.961 171.749 560.882C170.831 563.582 173.135 565.668 174.883 567.369C178.277 570.47 182.113 573.05 186.264 575.026C190.682 577.696 195.396 579.84 200.311 581.417C201.325 581.715 202.415 581.618 203.36 581.145C204.305 580.671 205.036 579.857 205.404 578.866C205.773 577.875 205.752 576.782 205.346 575.806C204.94 574.83 204.179 574.044 203.216 573.607Z" fill="#F4E6C1"/>
<path d="M174.796 270.619C177.493 272.151 180.398 273.284 183.42 273.984C183.633 274.058 183.866 274.05 184.074 273.962C184.888 273.944 185.678 273.683 186.342 273.212C187.006 272.741 187.513 272.082 187.798 271.319C188.084 270.556 188.134 269.726 187.942 268.934C187.75 268.143 187.325 267.427 186.723 266.88C186.099 266.354 185.373 265.964 184.59 265.736C182.584 265.186 180.654 264.385 178.847 263.354C176.844 262.113 174.838 259.266 172.396 258.958C171.655 258.952 170.925 259.133 170.274 259.485C169.622 259.837 169.07 260.347 168.669 260.97C168.267 261.592 168.03 262.306 167.979 263.045C167.927 263.784 168.064 264.523 168.375 265.195C169.996 267.541 172.212 269.413 174.796 270.619Z" fill="#F4E6C1"/>
<path d="M186.286 292.597C187.267 292.9 188.326 292.825 189.255 292.388C190.184 291.951 190.917 291.183 191.31 290.234C191.702 289.286 191.727 288.225 191.379 287.259C191.031 286.293 190.335 285.492 189.427 285.012C184.939 282.638 180.304 280.55 175.552 278.76C172.319 276.978 169.499 274.531 167.277 271.582C166.505 270.555 165.862 269.699 164.747 269.196C160.055 267.766 158.883 273.604 160.599 276.601C165.877 285.495 177.426 288.74 186.286 292.597Z" fill="#F4E6C1"/>
<path d="M186.618 313.448C191.663 314.546 193.296 308.965 189.791 305.906C184.037 301.913 177.829 298.619 171.297 296.092C166.586 294.266 162.271 291.551 158.587 288.094C157.493 286.638 156.892 284.947 154.985 284.103C149.917 282.083 148.401 287.108 150.386 290.64C153.638 295.343 158.152 299.033 163.409 301.283C171.445 305.559 178.946 309.568 186.618 313.448Z" fill="#F4E6C1"/>
<path d="M178.929 333.965C179.885 334.134 180.87 333.96 181.71 333.474C182.551 332.988 183.193 332.221 183.524 331.308C183.854 330.395 183.852 329.395 183.518 328.484C183.183 327.572 182.538 326.808 181.695 326.326C178.757 324.813 175.644 323.666 172.428 322.908C168.194 321.202 164.22 318.913 160.619 316.108C156.803 313.081 153.555 309.561 150.05 306.233C149.266 305.182 148.225 304.349 147.027 303.816C146.061 303.571 145.041 303.658 144.13 304.063C143.22 304.468 142.472 305.167 142.006 306.048C140.949 308.652 142.835 310.181 144.443 312.054C153.686 322.174 165.455 329.651 178.543 333.718L178.929 333.965Z" fill="#F4E6C1"/>
<path d="M177.211 354.413C168.628 351.025 160.402 346.796 152.652 341.789C148.428 337.77 144.558 333.395 141.083 328.713C140.569 328.028 139.957 327.214 139.293 326.776C138.396 326.316 137.373 326.162 136.381 326.339C135.389 326.516 134.482 327.014 133.8 327.756C131.607 330.543 134.405 333.999 135.982 336.364C143.844 348.341 159.189 356.904 172.505 361.432C177.519 363.023 182.035 358.96 177.211 354.413Z" fill="#F4E6C1"/>
<path d="M166.652 385.726C171.15 386.097 174.594 381.499 170.468 378.504C170.441 378.387 170.39 378.277 170.318 378.182C170.246 378.086 170.155 378.006 170.05 377.948C162.203 375.474 154.92 371.478 148.619 366.188C145.036 362.697 141.721 358.941 138.701 354.953C138.07 353.832 137.143 352.907 136.021 352.278C135.056 352.012 134.028 352.084 133.109 352.482C132.19 352.88 131.435 353.581 130.968 354.468C129.28 357.746 132.667 361.095 134.554 363.428C138.614 368.646 143.448 373.213 148.887 376.972C154.082 381.177 160.152 384.168 166.652 385.726Z" fill="#F4E6C1"/>
<path d="M172.33 408.789C172.578 408.247 172.715 407.66 172.732 407.064C172.749 406.468 172.645 405.874 172.428 405.319C172.21 404.763 171.883 404.257 171.466 403.831C171.049 403.405 170.551 403.066 170 402.837L169.496 402.612C160.235 400.049 151.769 395.192 144.882 388.489C141.34 384.606 137.997 380.545 134.868 376.322C134.128 375.337 133.516 373.988 132.198 373.572C131.233 373.285 130.197 373.347 129.273 373.747C128.349 374.148 127.596 374.861 127.145 375.762C125.371 379.105 128.951 382.711 130.753 385.108C139.117 396.942 151.136 405.701 164.963 410.039C167.727 410.507 170.716 411.811 172.33 408.789Z" fill="#F4E6C1"/>
<path d="M170.793 436.602C173.619 434.479 172.824 431.995 170.83 429.876C170.83 429.876 170.83 429.876 170.669 429.662L170.411 429.32C160.503 424.926 151.162 419.351 142.593 412.715C139.291 410.105 136.129 407.323 133.064 404.403C131.083 401.863 128.801 399.575 126.267 397.587C120.278 395.055 117.969 399.737 121.508 404.446C131.159 417.288 147.576 427.457 161.806 434.447C163.927 435.666 168.161 438.714 170.793 436.602Z" fill="#F4E6C1"/>
<path d="M160.565 458.829C165.631 459.241 167.93 455.169 164.113 451.339C154.358 446.452 145.265 440.343 137.053 433.159C133.023 429.49 129.139 422.629 124.521 420.138C123.782 419.689 123.042 418.704 122.099 418.609C112.32 417.719 120.566 428.335 122.689 430.624C128.515 436.897 134.93 442.597 141.844 447.645C146.228 450.714 154.856 458.363 160.565 458.829Z" fill="#F4E6C1"/>
<path d="M160.921 484.616C165.945 485.061 168.307 480.807 164.395 477.116C155.322 472.644 146.968 466.844 139.606 459.908C135.718 455.989 132.039 451.867 128.585 447.56C127.845 446.576 126.407 443.771 124.704 443.376C115.245 441.308 122.132 452.878 123.944 455.201C128.981 461.48 134.701 467.178 141 472.191C145.33 475.635 154.613 484.065 160.921 484.616Z" fill="#F4E6C1"/>
<path d="M157.609 491.793C157.435 491.677 157.228 491.621 157.02 491.633C151.426 490.48 146.24 487.857 141.997 484.033C139.468 482.183 137.268 477.74 134.023 477.433C126.365 476.959 131.203 485.447 133.69 487.865C137.819 491.549 142.417 494.671 147.365 497.147C150.4 499.194 154.044 500.143 157.692 499.836C158.65 499.677 159.52 499.181 160.144 498.437C160.769 497.693 161.107 496.75 161.097 495.779C161.087 494.808 160.729 493.872 160.09 493.141C159.45 492.41 158.57 491.932 157.609 491.793Z" fill="#F4E6C1"/>
<path d="M420.676 245.996C420.124 251.233 419.808 256.428 419.706 261.729C420.191 265.316 425.302 268.107 427.515 264.099C429.108 261.227 428.064 255.916 428.382 252.596C428.742 247.637 430.075 242.549 430.253 237.793C430.296 236.922 430.065 236.06 429.593 235.327C429.121 234.594 428.432 234.026 427.622 233.705C426.811 233.383 425.92 233.323 425.074 233.533C424.228 233.744 423.469 234.213 422.903 234.877C420.721 237.588 420.994 242.943 420.676 245.996Z" fill="#F4E6C1"/>
<path d="M403.59 240.28C403.731 243.476 403.239 246.668 402.143 249.673C401.048 251.403 400.202 253.279 399.632 255.245C399.535 256.232 399.812 257.218 400.408 258.011C401.003 258.803 401.874 259.344 402.849 259.526C409.747 261.04 411.587 247.533 411.711 243.153C411.718 241.125 411.584 239.1 411.309 237.091C410.91 234.243 411.196 231.415 410.979 228.631C410.762 225.847 410.376 224.797 407.762 224.35C399.845 221.659 403.33 236.724 403.59 240.28Z" fill="#F4E6C1"/>
<path d="M377.45 212.097L377.611 212.311C379.55 218.94 380.685 225.778 380.994 232.677C381.012 236.332 380.496 239.969 379.462 243.474C379.121 244.803 378.222 246.282 378.631 247.716C378.902 248.813 379.586 249.763 380.54 250.369C381.494 250.974 382.645 251.188 383.753 250.967C387.094 250.064 387.678 245.405 388.318 242.513C390.234 231.703 389.308 220.58 385.63 210.236C383.612 204.787 377.112 206.389 377.45 212.097Z" fill="#F4E6C1"/>
<path d="M345.1 194.009C348.614 201.62 351.46 209.522 353.605 217.626C354.679 222.038 355.244 226.557 355.289 231.097C355.302 233.164 354.352 236.892 355.436 238.958C355.872 239.796 356.573 240.466 357.43 240.864C358.286 241.262 359.25 241.366 360.172 241.16C364.101 240.149 363.593 235.105 363.59 231.892C363.629 225.709 362.83 219.55 361.216 213.581C359.744 205.667 356.93 198.063 352.894 191.099C350.009 187.439 344.377 188.591 345.1 194.009Z" fill="#F4E6C1"/>
<path d="M321.444 195.242C324.662 200.284 327.067 205.8 328.571 211.589C329.291 214.33 328.933 219.824 331.698 221.632C332.513 222.151 333.479 222.383 334.441 222.291C335.403 222.198 336.307 221.788 337.009 221.123C339.277 218.882 337.774 214.654 337.225 212.052C336.196 207.239 334.614 202.561 332.51 198.112C331.398 194.647 329.436 191.516 326.803 189.004C323.203 187.155 319.909 191.774 321.444 195.242Z" fill="#F4E6C1"/>
<path d="M301.497 199.986C301.878 203.094 302.64 206.144 303.766 209.066C304.056 209.754 304.526 210.351 305.126 210.795C305.726 211.24 306.434 211.516 307.176 211.594C307.919 211.672 308.669 211.549 309.348 211.239C310.027 210.929 310.611 210.442 311.038 209.83C312.172 208.308 311.731 206.83 311.237 205.192C310.303 201.995 309.718 198.707 309.493 195.384C309.394 194.604 309.072 193.869 308.565 193.268C308.058 192.667 307.388 192.226 306.636 191.998C305.883 191.77 305.081 191.765 304.325 191.983C303.57 192.201 302.894 192.633 302.379 193.228C300.582 195.114 301.227 197.845 301.497 199.986Z" fill="#F4E6C1"/>
<path d="M338.914 657.105C330.882 655.227 323.106 652.39 315.751 648.656C311.961 646.647 308.294 644.416 304.767 641.973C303.299 641 301.38 638.892 299.441 638.809C298.415 638.757 297.404 639.066 296.582 639.684C295.761 640.301 295.182 641.187 294.947 642.186C294.243 645.796 298.368 647.72 300.812 649.367C311.405 657.102 323.554 662.44 336.416 665.011C341.857 665.745 344.325 659.937 338.914 657.105Z" fill="#F4E6C1"/>
<path d="M313.682 633.866C323.949 640.274 335.445 644.458 347.429 646.149C352.26 646.605 355.831 641.108 350.624 638.457C348.625 637.744 346.538 637.306 344.422 637.156C340.731 636.37 337.095 635.343 333.538 634.082C330.536 633.033 327.593 631.824 324.72 630.46C322.321 628.815 319.721 627.482 316.983 626.495C316.057 626.289 315.087 626.41 314.239 626.836C313.391 627.262 312.716 627.968 312.328 628.835C311.94 629.701 311.862 630.675 312.109 631.591C312.356 632.508 312.911 633.312 313.682 633.866Z" fill="#F4E6C1"/>
<path d="M359.563 623.161C353.325 621.084 347.71 617.473 343.231 612.66C340.273 610.329 334.749 612.337 336.091 616.619C338.049 619.922 340.84 622.652 344.185 624.537C348.17 627.501 352.61 629.797 357.332 631.335C360.621 632.413 370.884 635.284 368.917 627.854C367.639 623.924 362.412 624.101 359.563 623.161Z" fill="#F4E6C1"/>
<path d="M380.221 612.33C380.136 612.109 379.991 611.917 379.803 611.773C374.69 610.259 369.959 607.671 365.926 604.183C363.686 602.182 361.186 597.162 357.908 596.812C357.055 596.746 356.202 596.934 355.455 597.352C354.708 597.77 354.102 598.399 353.712 599.161C352.334 601.872 354.499 604.13 356.204 606.131C359.265 609.694 362.872 612.749 366.89 615.181C370.164 617.604 373.99 619.172 378.022 619.743C378.863 619.687 379.665 619.375 380.323 618.849C380.981 618.323 381.462 617.609 381.701 616.801C381.94 615.994 381.927 615.133 381.662 614.334C381.398 613.534 380.895 612.835 380.221 612.33Z" fill="#F4E6C1"/>
<path d="M364.854 591.256C369.441 598.977 376.864 604.6 385.539 606.926C389.459 607.329 393.203 602.773 389.58 599.735C388.176 598.58 385.798 598.358 384.148 597.588C381.755 596.563 379.527 595.191 377.536 593.514C375.519 591.852 373.735 589.926 372.229 587.79C371.622 586.614 370.683 585.643 369.528 584.997C366.056 583.587 363.426 588.109 364.854 591.256Z" fill="#F4E6C1"/>
<path d="M396.967 585.943C392.329 585.203 388.126 582.783 385.158 579.143C383.872 577.43 382.746 575.932 380.272 576.652C379.472 576.853 378.744 577.275 378.173 577.871C377.601 578.466 377.209 579.21 377.041 580.018C376.54 582.471 378.695 584.536 380.228 586.13C382.683 588.698 385.633 590.742 388.898 592.141C391.52 593.562 394.492 594.209 397.468 594.007C401.933 592.995 400.899 587.074 396.967 585.943Z" fill="#F4E6C1"/>
<path d="M390.593 572.11C392.979 574.448 395.726 576.387 398.727 577.853C401.299 579.459 404.213 580.436 407.234 580.704C411.292 580.4 411.662 574.831 408.683 572.917C407.336 572.294 405.934 571.8 404.494 571.443C402.565 570.669 400.743 569.652 399.072 568.417C397.335 567.177 395.63 564.64 393.274 564.536C389.665 564.635 388.47 569.552 390.593 572.11Z" fill="#F4E6C1"/>
</svg>
