<svg width="102" height="40" viewBox="0 0 102 40" fill="none" xmlns="http://www.w3.org/2000/svg">
<path d="M35.7249 18.5737C34.5017 18.5842 33.2865 18.377 32.1369 17.9619C31.0699 17.5802 30.0911 16.9894 29.2586 16.2244C28.0288 15.0442 27.189 13.5206 26.8505 11.8556C26.5121 10.1905 26.6909 8.46254 27.3634 6.90073C27.8092 5.89707 28.4585 4.99553 29.2709 4.25245C30.1053 3.4913 31.0822 2.90067 32.1461 2.5142C33.2994 2.09696 34.519 1.88971 35.7464 1.9024C37.1921 1.9024 38.5007 2.14406 39.6724 2.62738C40.8124 3.09099 41.8226 3.8217 42.6168 4.75717L40.1373 6.96727C39.6072 6.3689 38.9576 5.8866 38.2298 5.55097C37.5096 5.23224 36.7288 5.07131 35.9404 5.07913C35.2086 5.07109 34.4815 5.19601 33.795 5.44773C33.165 5.67815 32.5904 6.03675 32.108 6.50056C31.6257 6.96437 31.2461 7.52316 30.9937 8.14114C30.4682 9.48902 30.4682 10.9833 30.9937 12.3311C31.2461 12.9491 31.6257 13.5079 32.108 13.9717C32.5904 14.4355 33.165 14.7941 33.795 15.0246C34.4815 15.2763 35.2086 15.4012 35.9404 15.3932C36.7288 15.4014 37.5097 15.2404 38.2298 14.9213C38.9617 14.5823 39.6121 14.0915 40.1373 13.4821L42.6168 15.6922C41.8215 16.6293 40.8119 17.3635 39.6724 17.8334C38.5018 18.3269 37.1859 18.5737 35.7249 18.5737Z" fill="#6A8323"/>
<path d="M53.3585 18.5738C52.1446 18.5858 50.9389 18.375 49.802 17.9521C48.7516 17.5621 47.7903 16.9674 46.9746 16.2031C46.1819 15.4553 45.5511 14.5547 45.1209 13.5564C44.2403 11.4326 44.2403 9.04909 45.1209 6.92531C45.5521 5.92303 46.1871 5.02011 46.9861 4.2732C47.8043 3.51335 48.7643 2.91998 49.812 2.52653C50.9376 2.10312 52.1326 1.89151 53.3361 1.90251C54.6191 1.90251 55.7969 2.10975 56.8695 2.52424C57.9109 2.91846 58.8638 3.51278 59.6738 4.2732C60.4659 5.01984 61.1001 5.91603 61.539 6.90925C61.9881 7.91412 62.2121 9.02299 62.2111 10.2359C62.2224 11.3789 61.9935 12.5116 61.539 13.5617C61.1062 14.5617 60.4714 15.4628 59.6738 16.2092C58.8615 16.9641 57.909 17.5545 56.8695 17.9475C55.7487 18.3721 54.5579 18.5845 53.3585 18.5738ZM53.3361 15.3971C54.021 15.404 54.7007 15.2788 55.3376 15.0285C55.941 14.7874 56.4889 14.427 56.948 13.9693C57.4155 13.5031 57.7822 12.947 58.0257 12.3351C58.5348 10.9842 58.5348 9.49595 58.0257 8.14507C57.7833 7.5353 57.4208 6.9797 56.9595 6.51082C56.5048 6.04994 55.9581 5.68864 55.3545 5.45013C54.7128 5.20002 54.0286 5.07488 53.3392 5.08153C52.6543 5.07454 51.9746 5.19972 51.3378 5.45013C50.7341 5.69121 50.1859 6.05154 49.7266 6.50929C49.2595 6.97577 48.8928 7.5318 48.6489 8.14354C48.1387 9.49028 48.1387 10.9753 48.6489 12.3221C48.889 12.9362 49.2514 13.4959 49.7143 13.9678C50.1708 14.4286 50.7193 14.7894 51.3247 15.0269C51.9653 15.2763 52.6481 15.4014 53.3361 15.3956V15.3971Z" fill="#6A8323"/>
<path d="M72.9173 18.5739C71.7034 18.5859 70.4977 18.3751 69.3609 17.9521C68.3105 17.5621 67.3492 16.9675 66.5334 16.2032C65.7402 15.4558 65.1094 14.5551 64.6798 13.5564C63.7991 11.4326 63.7991 9.04916 64.6798 6.92537C65.1103 5.92279 65.7454 5.01976 66.545 4.27326C67.363 3.51201 68.3233 2.91755 69.3716 2.52354C70.4969 2.10126 71.6914 1.89044 72.8942 1.9018C74.1772 1.9018 75.3552 2.10905 76.4283 2.52354C77.4696 2.91799 78.4223 3.51257 79.2319 4.27326C80.0242 5.01969 80.6584 5.91594 81.0971 6.90931C81.5456 7.91418 81.7699 9.02305 81.7699 10.2359C81.781 11.379 81.5519 12.5117 81.0971 13.5618C80.6646 14.562 80.0298 15.4631 79.2319 16.2093C78.4199 16.9641 77.4676 17.5545 76.4283 17.9475C75.3076 18.3721 74.1167 18.5845 72.9173 18.5739ZM72.8942 15.3971C73.5791 15.4041 74.2588 15.2789 74.8957 15.0285C75.4992 14.7876 76.0471 14.4273 76.5061 13.9694C76.9735 13.5032 77.3403 12.9471 77.5838 12.3351C78.0929 10.9843 78.0929 9.49601 77.5838 8.14513C77.3431 7.53544 76.9828 6.9794 76.5238 6.50935C76.0654 6.04787 75.5147 5.68705 74.9072 5.45019C74.2652 5.20008 73.5807 5.07494 72.8911 5.08159C72.2062 5.0746 71.5265 5.19978 70.8897 5.45019C70.2863 5.69148 69.7385 6.05179 69.2793 6.50935C68.8122 6.97588 68.4455 7.53189 68.2016 8.1436C67.6914 9.49034 67.6914 10.9754 68.2016 12.3221C68.442 12.9363 68.8046 13.496 69.2677 13.9678C69.7239 14.429 70.2726 14.7899 70.8781 15.027C71.5202 15.2771 72.2046 15.4022 72.8942 15.3956V15.3971Z" fill="#6A8323"/>
<path d="M84.5964 18.2962V2.18091H88.3268V18.2962H84.5964ZM87.9558 14.6125L87.748 10.3078L95.5106 2.18091H99.6821L92.6839 9.66311L90.5985 11.8732L87.9558 14.6125ZM95.6961 18.2962L89.9226 11.2744L92.3813 8.62689L100.079 18.2962H95.6961Z" fill="#6A8323"/>
<path d="M27.5278 37.7801V21.6655H35.4567C37.4961 21.6655 39.0293 22.0492 40.0562 22.8165C41.0831 23.5837 41.5963 24.5965 41.5958 25.8548C41.5958 26.6995 41.3872 27.4324 40.9699 28.0534C40.5443 28.6824 39.9503 29.1809 39.2548 29.4926C38.5287 29.8301 37.6945 29.9989 36.7523 29.9989L37.1933 29.0552C38.2126 29.0552 39.116 29.2201 39.9038 29.55C40.6915 29.8798 41.3058 30.3672 41.7467 31.0122C42.187 31.6571 42.4071 32.4473 42.4071 33.3829C42.4071 34.765 41.8585 35.8433 40.7613 36.6177C39.6641 37.3921 38.0499 37.7796 35.9186 37.7801H27.5278ZM31.2598 34.9712H35.6399C36.615 34.9712 37.3527 34.8139 37.8531 34.4994C38.3534 34.1848 38.6044 33.6821 38.6059 32.9913C38.6059 32.3168 38.355 31.8144 37.8531 31.484C37.3512 31.1536 36.6134 30.9885 35.6399 30.9885H30.9827V28.2721H34.991C35.9024 28.2721 36.6016 28.1148 37.0886 27.8003C37.5757 27.4857 37.8189 27.0062 37.8184 26.3618C37.8184 25.7322 37.5752 25.2601 37.0886 24.9455C36.6021 24.6309 35.9029 24.4736 34.991 24.4736H31.2598V34.9712Z" fill="#6A8323"/>
<path d="M53.1336 38.057C51.9197 38.0687 50.714 37.8577 49.5772 37.4345C48.5269 37.0447 47.5658 36.45 46.7505 35.6855C45.9575 34.9376 45.3264 34.0367 44.8961 33.038C44.0154 30.9145 44.0154 28.5312 44.8961 26.4077C45.3279 25.4071 45.9628 24.5058 46.7613 23.7602C47.5799 23.0004 48.5405 22.4075 49.5887 22.015C50.7138 21.592 51.9084 21.3809 53.1113 21.3925C54.3943 21.3925 55.5723 21.6 56.6454 22.015C57.6867 22.4091 58.6394 23.0034 59.449 23.764C60.2409 24.5108 60.875 25.4069 61.3142 26.4001C61.7628 27.4059 61.987 28.5148 61.987 29.7267C61.998 30.87 61.7689 32.003 61.3142 33.0533C60.8813 34.053 60.2465 34.9539 59.449 35.7C58.6371 36.455 57.6848 37.0454 56.6454 37.4383C55.5239 37.8601 54.3328 38.0699 53.1336 38.057ZM53.1113 34.8795C53.7961 34.8862 54.4757 34.7613 55.1128 34.5116C55.7163 34.2703 56.2641 33.9097 56.7232 33.4517C57.1908 32.9857 57.5576 32.4295 57.8009 31.8175C58.31 30.4666 58.31 28.9783 57.8009 27.6275C57.56 27.0177 57.1994 26.4616 56.7401 25.9917C56.2836 25.5308 55.735 25.17 55.1297 24.9325C54.4877 24.6825 53.8032 24.5573 53.1136 24.5639C52.4287 24.5569 51.749 24.6821 51.1122 24.9325C50.5067 25.1732 49.9567 25.5335 49.4956 25.9917C49.0287 26.4583 48.662 27.0143 48.4179 27.6259C47.9077 28.9727 47.9077 30.4577 48.4179 31.8045C48.6578 32.4189 49.0205 32.9787 49.484 33.4502C49.9401 33.9114 50.4884 34.2725 51.0937 34.5101C51.7363 34.7601 52.4212 34.8855 53.1113 34.8795Z" fill="#6A8323"/>
<path d="M72.6922 38.057C71.4783 38.0687 70.2726 37.8577 69.1358 37.4345C68.0854 37.0445 67.1241 36.4499 66.3083 35.6855C65.5155 34.9375 64.8848 34.0366 64.4547 33.038C63.574 30.9145 63.574 28.5312 64.4547 26.4077C64.8862 25.407 65.5212 24.5056 66.3199 23.7602C67.1383 23.0003 68.099 22.4073 69.1473 22.015C70.2724 21.592 71.467 21.3809 72.6699 21.3925C73.9529 21.3925 75.1307 21.6 76.2033 22.015C77.2447 22.4091 78.1977 23.0034 79.0076 23.764C79.7993 24.511 80.4334 25.4071 80.8728 26.4001C81.3208 27.4059 81.5448 28.5148 81.5448 29.7267C81.5558 30.8699 81.3269 32.0028 80.8728 33.0533C80.4396 34.0528 79.8048 34.9536 79.0076 35.7C78.1954 36.455 77.2428 37.0454 76.2033 37.4383C75.082 37.8602 73.8912 38.0701 72.6922 38.057ZM72.6699 34.8795C73.3547 34.8864 74.0344 34.7614 74.6714 34.5116C75.275 34.2705 75.8229 33.9098 76.2818 33.4517C76.7496 32.9858 77.1164 32.4296 77.3595 31.8175C77.8695 30.4667 77.8695 28.9782 77.3595 27.6275C77.1177 27.0176 76.7563 26.4616 76.2964 25.9917C75.8396 25.5308 75.2908 25.17 74.6852 24.9325C74.0434 24.6825 73.3592 24.5573 72.6699 24.5639C71.985 24.5569 71.3053 24.682 70.6684 24.9325C70.0645 25.1735 69.5161 25.5338 69.0565 25.9917C68.5893 26.4581 68.2226 27.0141 67.9788 27.6259C67.4677 28.9725 67.4677 30.4579 67.9788 31.8045C68.2188 32.4187 68.5812 32.9784 69.0442 33.4502C69.5005 33.9114 70.0491 34.2725 70.6546 34.5101C71.2965 34.7599 71.9806 34.8853 72.6699 34.8795Z" fill="#6A8323"/>
<path d="M84.3757 37.7801V21.6655H88.1061V37.7801H84.3757ZM87.732 34.0979L87.5234 29.7932L95.2868 21.6671H99.4575L92.4586 29.147L90.3732 31.3571L87.732 34.0979ZM95.4715 37.7816L89.6981 30.7606L92.1553 28.1123L99.8486 37.7801L95.4715 37.7816Z" fill="#6A8323"/>
<path d="M20.6237 9.84201C17.5153 13.1442 12.8303 13.7911 12.8303 13.7911C12.8303 13.7911 13.3877 9.31587 16.4953 6.01067C19.603 2.70547 23.7806 2.14722 23.7806 2.14722C23.7806 2.14722 23.7283 6.54064 20.6237 9.84201Z" fill="#6A8323"/>
<path d="M5.03673 9.84201C8.14515 13.1472 12.8301 13.7911 12.8301 13.7911C12.8301 13.7911 12.2728 9.31587 9.16666 6.01067C6.06055 2.70547 1.88135 2.14722 1.88135 2.14722C1.88135 2.14722 1.93062 6.54064 5.03673 9.84201Z" fill="#6A8323"/>
<path d="M12.8304 13.6526C7.38642 13.6526 2.97705 19.1243 2.97705 25.8739C2.97705 32.6235 7.3895 38.0952 12.8304 38.0952C18.2713 38.0952 22.6837 32.6235 22.6837 25.8739C22.6837 19.1243 18.2744 13.6526 12.8304 13.6526ZM12.8304 32.6273C9.85361 32.6273 7.44185 29.6356 7.44185 25.945C7.44185 22.2544 9.85438 19.2635 12.8304 19.2635C15.8064 19.2635 18.2189 22.2551 18.2189 25.945C18.2189 29.6349 15.8072 32.6273 12.8304 32.6273Z" fill="#6A8323"/>
<path d="M13.8497 22.6009C13.8497 22.8694 13.7423 23.127 13.5512 23.3168C13.36 23.5067 13.1008 23.6134 12.8305 23.6134C12.5602 23.6134 12.3009 23.5067 12.1098 23.3168C11.9187 23.127 11.8113 22.8694 11.8113 22.6009C11.8113 22.0411 12.8305 20.8259 12.8305 20.8259C12.8305 20.8259 13.8497 22.0411 13.8497 22.6009Z" fill="#6A8323"/>
</svg>
