<svg width="109" height="40" viewBox="0 0 109 40" fill="none" xmlns="http://www.w3.org/2000/svg">
<path d="M18.6196 1.31678C19.3923 0.579706 20.6077 0.579706 21.3804 1.31678L22.6425 2.52064C23.1894 3.04231 23.9837 3.21113 24.6954 2.95701L26.338 2.37055C27.3438 2.01149 28.4541 2.50587 28.8603 3.49351L29.5236 5.10662C29.811 5.80563 30.4679 6.2829 31.2215 6.34026L32.9606 6.47262C34.0254 6.55365 34.8387 7.45692 34.808 8.52436L34.7579 10.2678C34.7361 11.0233 35.1421 11.7265 35.8073 12.0854L37.3422 12.9137C38.282 13.4208 38.6576 14.5768 38.1954 15.5395L37.4404 17.1118C37.1133 17.7931 37.1982 18.6006 37.6598 19.1991L38.7252 20.58C39.3774 21.4256 39.2504 22.6344 38.4366 23.3258L37.1074 24.4551C36.5314 24.9445 36.2805 25.7167 36.4588 26.4512L36.8704 28.1461C37.1223 29.1838 36.5146 30.2365 35.4899 30.5371L33.8163 31.0282C33.0911 31.2409 32.5478 31.8444 32.4119 32.5879L32.0985 34.3036C31.9066 35.3541 30.9233 36.0686 29.8649 35.9264L28.1363 35.6943C27.3872 35.5937 26.6454 35.924 26.2189 36.548L25.2347 37.9879C24.6322 38.8696 23.4433 39.1223 22.5342 38.562L21.0494 37.6468C20.406 37.2502 19.594 37.2502 18.9506 37.6468L17.4658 38.562C16.5567 39.1223 15.3678 38.8696 14.7653 37.9879L13.7811 36.548C13.3546 35.924 12.6128 35.5937 11.8637 35.6943L10.1351 35.9264C9.0767 36.0686 8.09337 35.3541 7.90147 34.3036L7.58805 32.5879C7.45224 31.8444 6.90891 31.2409 6.18369 31.0282L4.51008 30.5371C3.4854 30.2365 2.87766 29.1838 3.12964 28.1461L3.54118 26.4512C3.71951 25.7167 3.46859 24.9445 2.89262 24.4551L1.56343 23.3258C0.749617 22.6344 0.622566 21.4256 1.27484 20.58L2.34018 19.1991C2.80182 18.6006 2.8867 17.7931 2.55956 17.1118L1.80462 15.5395C1.3424 14.5768 1.718 13.4208 2.65779 12.9137L4.19273 12.0854C4.85786 11.7265 5.26385 11.0233 5.24212 10.2678L5.19196 8.52436C5.16126 7.45692 5.97456 6.55365 7.03936 6.47261L8.77849 6.34026C9.53211 6.2829 10.189 5.80563 10.4764 5.10662L11.1397 3.49351C11.5459 2.50587 12.6562 2.01149 13.662 2.37055L15.3046 2.95701C16.0163 3.21113 16.8106 3.04231 17.3575 2.52064L18.6196 1.31678Z" fill="#6A8323"/>
<path d="M58.922 16.9976C57.6517 16.9976 56.4851 16.7126 55.4221 16.1425C54.3722 15.5724 53.5361 14.7934 52.9139 13.8052C52.3046 12.8171 52 11.715 52 10.4988C52 9.29533 52.3046 8.19953 52.9139 7.2114C53.5361 6.21061 54.3722 5.42518 55.4221 4.85511C56.4851 4.28504 57.6582 4 58.9415 4C60.2248 4 61.3785 4.2977 62.4025 4.89311C63.4265 5.47585 64.2302 6.29929 64.8135 7.36342L62.2664 9.05463C61.4368 7.68646 60.322 7.00238 58.922 7.00238C58.248 7.00238 57.6452 7.14806 57.1138 7.43943C56.5823 7.7308 56.1675 8.14252 55.8693 8.67458C55.5712 9.20665 55.4221 9.82106 55.4221 10.5178C55.4221 11.5566 55.7462 12.3991 56.3943 13.0451C57.0554 13.6785 57.898 13.9952 58.922 13.9952C60.322 13.9952 61.4368 13.3112 62.2664 11.943L64.8135 13.6342C64.2302 14.6983 63.4265 15.5281 62.4025 16.1235C61.3785 16.7063 60.2183 16.9976 58.922 16.9976Z" fill="#6A8323"/>
<path d="M72.8589 16.9976C71.6015 16.9976 70.4414 16.7126 69.3785 16.1425C68.3285 15.5724 67.4924 14.7934 66.8702 13.8052C66.2609 12.8171 65.9563 11.715 65.9563 10.4988C65.9563 9.29533 66.2609 8.19953 66.8702 7.2114C67.4924 6.21061 68.3285 5.42518 69.3785 4.85511C70.4414 4.28504 71.6015 4 72.8589 4C74.1163 4 75.2764 4.28504 76.3394 4.85511C77.4023 5.42518 78.2449 6.21061 78.8671 7.2114C79.4893 8.19953 79.8004 9.29533 79.8004 10.4988C79.8004 11.715 79.4893 12.8171 78.8671 13.8052C78.2449 14.7934 77.4023 15.5724 76.3394 16.1425C75.2764 16.7126 74.1163 16.9976 72.8589 16.9976ZM72.8784 13.9952C73.5395 13.9952 74.1357 13.8496 74.6672 13.5582C75.1987 13.2668 75.6135 12.8614 75.9116 12.342C76.2227 11.81 76.3783 11.1956 76.3783 10.4988C76.3783 9.81473 76.2227 9.20665 75.9116 8.67458C75.6135 8.14252 75.1987 7.7308 74.6672 7.43943C74.1357 7.14806 73.5395 7.00238 72.8784 7.00238C72.1913 7.00238 71.5821 7.14806 71.0506 7.43943C70.5321 7.7308 70.1238 8.14252 69.8257 8.67458C69.5275 9.20665 69.3785 9.81473 69.3785 10.4988C69.3785 11.5503 69.7025 12.3991 70.3507 13.0451C70.9988 13.6785 71.8414 13.9952 72.8784 13.9952Z" fill="#6A8323"/>
<path d="M87.9545 16.9976C86.6972 16.9976 85.537 16.7126 84.4741 16.1425C83.4241 15.5724 82.588 14.7934 81.9658 13.8052C81.3566 12.8171 81.0519 11.715 81.0519 10.4988C81.0519 9.29533 81.3566 8.19953 81.9658 7.2114C82.588 6.21061 83.4241 5.42518 84.4741 4.85511C85.537 4.28504 86.6972 4 87.9545 4C89.2119 4 90.3721 4.28504 91.435 4.85511C92.4979 5.42518 93.3405 6.21061 93.9627 7.2114C94.5849 8.19953 94.896 9.29533 94.896 10.4988C94.896 11.715 94.5849 12.8171 93.9627 13.8052C93.3405 14.7934 92.4979 15.5724 91.435 16.1425C90.3721 16.7126 89.2119 16.9976 87.9545 16.9976ZM87.974 13.9952C88.6351 13.9952 89.2314 13.8496 89.7628 13.5582C90.2943 13.2668 90.7091 12.8614 91.0072 12.342C91.3183 11.81 91.4739 11.1956 91.4739 10.4988C91.4739 9.81473 91.3183 9.20665 91.0072 8.67458C90.7091 8.14252 90.2943 7.7308 89.7628 7.43943C89.2314 7.14806 88.6351 7.00238 87.974 7.00238C87.287 7.00238 86.6777 7.14806 86.1463 7.43943C85.6278 7.7308 85.2194 8.14252 84.9213 8.67458C84.6231 9.20665 84.4741 9.81473 84.4741 10.4988C84.4741 11.5503 84.7981 12.3991 85.4463 13.0451C86.0944 13.6785 86.937 13.9952 87.974 13.9952Z" fill="#6A8323"/>
<path d="M105.033 16.7696L100.153 10.5178V16.7696H96.8087V4.22803H100.153V9.90974L104.392 4.22803H108.281L103.867 10.1948L109 16.7696H105.033Z" fill="#6A8323"/>
<path d="M60.847 29.0451C61.521 29.3112 62.046 29.6975 62.4219 30.2043C62.7979 30.711 62.9858 31.3254 62.9858 32.0475C62.9858 32.7696 62.7979 33.4157 62.4219 33.9858C62.046 34.5432 61.5275 34.9802 60.8664 35.2969C60.2053 35.6136 59.4665 35.772 58.6498 35.772H52.6611V23.2304H57.2887C58.1054 23.2304 58.8443 23.3888 59.5054 23.7055C60.1664 24.0095 60.6849 24.4466 61.0609 25.0166C61.4368 25.574 61.6247 26.2138 61.6247 26.9359C61.6247 27.772 61.3655 28.4751 60.847 29.0451ZM55.8693 25.9857V28.19H57.0749C57.4767 28.19 57.7878 28.0887 58.0082 27.886C58.2415 27.6833 58.3582 27.4173 58.3582 27.0879C58.3582 26.7585 58.2415 26.4925 58.0082 26.2898C57.7878 26.0871 57.4767 25.9857 57.0749 25.9857H55.8693ZM58.4359 33.0166C58.8378 33.0166 59.1489 32.928 59.3692 32.7506C59.6026 32.5606 59.7192 32.2819 59.7192 31.9145C59.7192 31.5471 59.6026 31.2747 59.3692 31.0974C59.1489 30.9074 58.8378 30.8124 58.4359 30.8124H55.8693V33.0166H58.4359Z" fill="#6A8323"/>
<path d="M71.0361 36C69.7787 36 68.6185 35.715 67.5556 35.1449C66.5056 34.5748 65.6695 33.7957 65.0473 32.8076C64.4381 31.8195 64.1335 30.7173 64.1335 29.5012C64.1335 28.2977 64.4381 27.2019 65.0473 26.2138C65.6695 25.213 66.5056 24.4276 67.5556 23.8575C68.6185 23.2874 69.7787 23.0024 71.0361 23.0024C72.2934 23.0024 73.4536 23.2874 74.5165 23.8575C75.5794 24.4276 76.422 25.213 77.0442 26.2138C77.6664 27.2019 77.9775 28.2977 77.9775 29.5012C77.9775 30.7173 77.6664 31.8195 77.0442 32.8076C76.422 33.7957 75.5794 34.5748 74.5165 35.1449C73.4536 35.715 72.2934 36 71.0361 36ZM71.0555 32.9976C71.7166 32.9976 72.3129 32.8519 72.8443 32.5606C73.3758 32.2692 73.7906 31.8638 74.0887 31.3444C74.3998 30.8124 74.5554 30.1979 74.5554 29.5012C74.5554 28.8171 74.3998 28.209 74.0887 27.677C73.7906 27.1449 73.3758 26.7332 72.8443 26.4418C72.3129 26.1504 71.7166 26.0048 71.0555 26.0048C70.3685 26.0048 69.7592 26.1504 69.2278 26.4418C68.7093 26.7332 68.3009 27.1449 68.0028 27.677C67.7047 28.209 67.5556 28.8171 67.5556 29.5012C67.5556 30.5527 67.8797 31.4014 68.5278 32.0475C69.1759 32.6809 70.0185 32.9976 71.0555 32.9976Z" fill="#6A8323"/>
<path d="M86.1317 36C84.8743 36 83.7141 35.715 82.6512 35.1449C81.6012 34.5748 80.7652 33.7957 80.1429 32.8076C79.5337 31.8195 79.2291 30.7173 79.2291 29.5012C79.2291 28.2977 79.5337 27.2019 80.1429 26.2138C80.7652 25.213 81.6012 24.4276 82.6512 23.8575C83.7141 23.2874 84.8743 23.0024 86.1317 23.0024C87.389 23.0024 88.5492 23.2874 89.6121 23.8575C90.6751 24.4276 91.5176 25.213 92.1398 26.2138C92.7621 27.2019 93.0732 28.2977 93.0732 29.5012C93.0732 30.7173 92.7621 31.8195 92.1398 32.8076C91.5176 33.7957 90.6751 34.5748 89.6121 35.1449C88.5492 35.715 87.389 36 86.1317 36ZM86.1511 32.9976C86.8122 32.9976 87.4085 32.8519 87.94 32.5606C88.4714 32.2692 88.8862 31.8638 89.1844 31.3444C89.4955 30.8124 89.651 30.1979 89.651 29.5012C89.651 28.8171 89.4955 28.209 89.1844 27.677C88.8862 27.1449 88.4714 26.7332 87.94 26.4418C87.4085 26.1504 86.8122 26.0048 86.1511 26.0048C85.4641 26.0048 84.8549 26.1504 84.3234 26.4418C83.8049 26.7332 83.3966 27.1449 83.0984 27.677C82.8003 28.209 82.6512 28.8171 82.6512 29.5012C82.6512 30.5527 82.9753 31.4014 83.6234 32.0475C84.2715 32.6809 85.1141 32.9976 86.1511 32.9976Z" fill="#6A8323"/>
<path d="M103.211 35.772L98.3301 29.5202V35.772H94.9858V23.2304H98.3301V28.9121L102.569 23.2304H106.458L102.044 29.1972L107.177 35.772H103.211Z" fill="#6A8323"/>
</svg>
