<svg width="80" height="106" viewBox="0 0 80 106" fill="none" xmlns="http://www.w3.org/2000/svg">
<path d="M0 4C0 1.79086 1.79086 0 4 0H50L80 30V50V100H0V4Z" fill="#6A8323" fill-opacity="0.4"/>
<path d="M60.3327 50.2275H20.666" stroke="#6A8323" stroke-width="4" stroke-linecap="round" stroke-linejoin="round"/>
<path d="M60.3327 70.0605H20.666" stroke="#6A8323" stroke-width="4" stroke-linecap="round" stroke-linejoin="round"/>
<path d="M30.5827 30.3945H25.6243H20.666" stroke="#6A8323" stroke-width="4" stroke-linecap="round" stroke-linejoin="round"/>
<path d="M52.981 29.9999C51.3233 29.9999 49.9798 28.6555 49.981 26.9978L50 -2.02284e-07L79.9992 30L52.981 29.9999Z" fill="#6A8323" fill-opacity="0.4"/>
<path d="M80 100L0 100L4.20913e-08 100.496L5 106L10 100.496L15 106L20 100.496L25 106L30 100.496L35 106L40 100.496L45 106L50 100.496L55 106L60 100.496L65 106L70 100.496L75 106L80 100.496V100Z" fill="#6A8323" fill-opacity="0.4"/>
</svg>
