<svg width="154" height="106" viewBox="0 0 154 106" fill="none" xmlns="http://www.w3.org/2000/svg">
<g clip-path="url(#clip0_594_17092)">
<path d="M77 106C119.526 106 154 95.4404 154 82.4147C154 69.389 119.526 58.8296 77 58.8296C34.4741 58.8296 0 69.389 0 82.4147C0 95.4404 34.4741 106 77 106Z" fill="#E8EABB"/>
<path d="M118.631 7.71603C113.772 2.77586 107.183 0.000497964 100.313 0.000497964C93.4422 0.000497964 86.8531 2.77586 81.9948 7.71603L77.007 12.7881L72.0191 7.71603C68.3965 4.03234 63.7812 1.52359 58.7566 0.506962C53.732 -0.509663 48.5238 0.011491 43.7905 2.00452C39.0571 3.99755 35.0112 7.37296 32.1642 11.704C29.3171 16.0351 27.7969 21.1273 27.7956 26.3369C27.7199 32.9879 29.3053 39.5497 32.4031 45.4079C34.1551 48.8188 42.198 58.8425 48.4453 64.3838C55.3036 70.4703 60.7965 75.6564 69.1573 80.5193C71.489 82.0826 74.2204 82.9158 77.0132 82.9158C79.806 82.9158 82.5375 82.0826 84.8691 80.5193C93.23 75.6564 98.7228 70.4703 105.581 64.3838C111.816 58.8425 119.871 48.8188 121.623 45.4079C124.721 39.5497 126.306 32.9879 126.231 26.3369C126.226 19.3507 123.492 12.6526 118.631 7.71603Z" fill="#C3C893"/>
<path d="M51.9922 34.376L56.3004 38.6746C56.3004 38.6746 62.5041 29.4497 69.7178 38.6746" stroke="#6A8323" stroke-width="4" stroke-linecap="round" stroke-linejoin="round"/>
<path d="M59.168 29.4878L61.213 34.8642" stroke="#6A8323" stroke-width="4" stroke-linecap="round" stroke-linejoin="round"/>
<path d="M100.823 34.376L96.515 38.6746C96.515 38.6746 90.3113 29.4497 83.0977 38.6746" stroke="#6A8323" stroke-width="4" stroke-linecap="round" stroke-linejoin="round"/>
<path d="M93.647 29.4878L91.5957 34.8642" stroke="#6A8323" stroke-width="4" stroke-linecap="round" stroke-linejoin="round"/>
<path d="M71.4766 49.7192C71.4766 49.7192 76.1776 53.5233 82.5247 49.7192" stroke="#6A8323" stroke-width="4" stroke-linecap="round" stroke-linejoin="round"/>
</g>
<defs>
<clipPath id="clip0_594_17092">
<rect width="154" height="106" fill="white"/>
</clipPath>
</defs>
</svg>
