<svg width="24" height="24" viewBox="0 0 24 24" fill="none" xmlns="http://www.w3.org/2000/svg">
<path d="M21 10C20.8362 12.7164 19.8169 15.2579 18.1471 17.1132C16.4773 18.9686 14.281 20 12 20C9.71902 20 7.52267 18.9686 5.85288 17.1132C4.18308 15.2579 3.16376 12.7164 3 10H21Z" stroke="#323232" stroke-width="2" stroke-linejoin="round"/>
<path d="M15.554 2L15.7017 2.20599C15.9263 2.5306 16.0306 2.94265 15.9922 3.3539C15.9539 3.76516 15.776 4.14293 15.4966 4.40636C15.349 4.54818 15.2287 4.72342 15.1435 4.92099C15.0582 5.11856 15.0098 5.33416 15.0013 5.55417C14.9929 5.77418 15.0245 5.99381 15.0942 6.19916C15.1639 6.40452 15.2702 6.59112 15.4063 6.74719L15.6279 7" stroke="#323232" stroke-width="2" stroke-miterlimit="10" stroke-linecap="round"/>
<path d="M11.554 2L11.7017 2.20599C11.9263 2.5306 12.0306 2.94265 11.9922 3.3539C11.9539 3.76516 11.776 4.14293 11.4966 4.40636C11.349 4.54818 11.2287 4.72342 11.1435 4.92099C11.0582 5.11856 11.0098 5.33416 11.0013 5.55417C10.9929 5.77418 11.0245 5.99381 11.0942 6.19916C11.1639 6.40452 11.2702 6.59112 11.4063 6.74719L11.6279 7" stroke="#323232" stroke-width="2" stroke-miterlimit="10" stroke-linecap="round"/>
<path d="M7.55403 2L7.70172 2.20599C7.92628 2.5306 8.03055 2.94265 7.99222 3.3539C7.95388 3.76516 7.77598 4.14293 7.4966 4.40636C7.34896 4.54818 7.22872 4.72342 7.14347 4.92099C7.05822 5.11856 7.00983 5.33416 7.00135 5.55417C6.99287 5.77418 7.02447 5.99381 7.09418 6.19916C7.16389 6.40452 7.27019 6.59112 7.40635 6.74719L7.62788 7" stroke="#323232" stroke-width="2" stroke-miterlimit="10" stroke-linecap="round"/>
<path d="M2 13.5801H3" stroke="#323232" stroke-width="2" stroke-miterlimit="10" stroke-linecap="round"/>
<path d="M21 13.5801H22" stroke="#323232" stroke-width="2" stroke-miterlimit="10" stroke-linecap="round"/>
<path d="M7 21L17 21" stroke="#323232" stroke-width="2" stroke-linecap="round"/>
</svg>
